<?xml version="1.0" encoding="UTF-8"?>
<svg id="OBJECT" xmlns="http://www.w3.org/2000/svg" viewBox="0 0 32 32">
  <defs>
    <style>
      .cls-1 {
        fill: #7738c8;
      }

      .cls-1, .cls-2 {
        stroke-width: 0px;
      }

      .cls-2 {
        fill: #011839;
      }
    </style>
  </defs>
  <path class="cls-1" d="m21.73,18.77h-11.47c-.55,0-1,.45-1,1v3.52c0,2.21,1.79,4,4,4h5.47c2.21,0,4-1.79,4-4v-3.52c0-.55-.45-1-1-1Z"/>
  <g>
    <path class="cls-2" d="m19.5,14.77h-7c-.55,0-1,.45-1,1s.45,1,1,1h7c.55,0,1-.45,1-1s-.45-1-1-1Z"/>
    <path class="cls-2" d="m28,18h-1.06c-.14-1.08-.61-2.09-1.4-2.88l-.66-.66c-.56-.56-.88-1.33-.88-2.12v-2.34c0-1.39-.96-2.55-2.24-2.89v-3.11c0-1.65-1.35-3-3-3h-5.52c-1.65,0-3,1.35-3,3v3.11c-1.29.34-2.24,1.5-2.24,2.89v2.34c0,.79-.32,1.56-.88,2.12l-.66.66c-.79.79-1.26,1.79-1.4,2.88h-1.06c-1.65,0-3,1.35-3,3v9c0,.55.45,1,1,1s1-.45,1-1v-9c0-.55.45-1,1-1h1v10c0,.55.45,1,1,1h20c.55,0,1-.45,1-1v-10h1c.55,0,1,.45,1,1v9c0,.55.45,1,1,1s1-.45,1-1v-9c0-1.65-1.35-3-3-3ZM13.24,3h5.52c.55,0,1,.45,1,1v3h-7.52v-3c0-.55.45-1,1-1Zm11.76,26H7v-10.34c0-.79.32-1.56.88-2.12l.66-.66c.94-.94,1.46-2.2,1.46-3.54v-2.34c0-.55.45-1,1-1h10c.55,0,1,.45,1,1v2.34c0,1.33.52,2.59,1.46,3.53l.66.66c.56.56.88,1.33.88,2.12v10.34Z"/>
  </g>
</svg>