<?xml version="1.0" encoding="UTF-8"?>
<svg id="OBJECT" xmlns="http://www.w3.org/2000/svg" viewBox="0 0 32 32">
  <defs>
    <style>
      .cls-1 {
        fill: #7738c8;
      }

      .cls-1, .cls-2 {
        stroke-width: 0px;
      }

      .cls-2 {
        fill: #011839;
      }
    </style>
  </defs>
  <path class="cls-1" d="m11.5,6h9c.55,0,1-.45,1-1s-.45-1-1-1v-.5c0-1.38-1.12-2.5-2.5-2.5h-4c-1.38,0-2.5,1.12-2.5,2.5v.5c-.55,0-1,.45-1,1s.45,1,1,1Z"/>
  <g>
    <path class="cls-2" d="m30.95,5.6c-.17-.52-.74-.81-1.26-.63l-1.98.66c-.52.17-.81.74-.63,1.26.14.42.53.69.95.69.1,0,.21-.02.31-.05l1.98-.66c.52-.17.81-.74.63-1.26Z"/>
    <path class="cls-2" d="m26.57,1.11c-.49-.25-1.09-.05-1.34.45l-.51,1.02c-.25.49-.05,1.09.45,1.34.14.07.3.11.45.11.37,0,.72-.2.9-.55l.51-1.02c.25-.49.05-1.09-.45-1.34Z"/>
    <path class="cls-2" d="m29.68,10.47l-1.02-.51c-.49-.25-1.09-.05-1.34.44-.25.49-.05,1.09.44,1.34l1.02.51c.14.07.3.11.45.11.37,0,.72-.2.89-.55.25-.49.05-1.09-.44-1.34Z"/>
    <path class="cls-2" d="m4.3,5.62l-1.98-.66c-.53-.18-1.09.11-1.26.63-.17.52.11,1.09.63,1.26l1.98.66c.1.03.21.05.31.05.42,0,.81-.27.95-.69.17-.52-.11-1.09-.63-1.26Z"/>
    <path class="cls-2" d="m6.77,1.55c-.25-.49-.85-.69-1.34-.45-.49.25-.69.85-.45,1.34l.51,1.02c.18.35.53.55.9.55.15,0,.3-.03.45-.11.49-.25.69-.85.45-1.34l-.51-1.02Z"/>
    <path class="cls-2" d="m3.34,9.96l-1.02.51c-.49.25-.69.85-.44,1.34.18.35.53.55.89.55.15,0,.3-.03.45-.11l1.02-.51c.49-.25.69-.85.44-1.34-.25-.49-.85-.69-1.34-.44Z"/>
    <path class="cls-2" d="m21,10.03h-2v-2.03c0-.55-.45-1-1-1s-1,.45-1,1v2.03h-2v-2.03c0-.55-.45-1-1-1s-1,.45-1,1v2.03h-2c-1.65,0-3,1.35-3,3v14.97c0,1.65,1.35,3,3,3h10c1.65,0,3-1.35,3-3v-14.97c0-1.65-1.35-3-3-3Zm-10,2h10c.55,0,1,.45,1,1v.99h-12v-.99c0-.55.45-1,1-1Zm11,3.99v9h-12v-9h12Zm-1,12.99h-10c-.55,0-1-.45-1-1v-.99h12v.99c0,.55-.45,1-1,1Z"/>
    <path class="cls-2" d="m16,24.01c1.93,0,3.5-1.57,3.5-3.5s-1.57-3.5-3.5-3.5-3.5,1.57-3.5,3.5,1.57,3.5,3.5,3.5Zm0-5c.83,0,1.5.67,1.5,1.5s-.67,1.5-1.5,1.5-1.5-.67-1.5-1.5.67-1.5,1.5-1.5Z"/>
  </g>
</svg>