<?xml version="1.0" encoding="UTF-8"?>
<svg id="OBJECT" xmlns="http://www.w3.org/2000/svg" viewBox="0 0 32 32">
  <defs>
    <style>
      .cls-1 {
        fill: #7738c8;
      }

      .cls-1, .cls-2 {
        stroke-width: 0px;
      }

      .cls-2 {
        fill: #011839;
      }
    </style>
  </defs>
  <g>
    <path class="cls-1" d="m14.8,16.82c.45-.11.87-.26,1.48-.73.74-.58.95-1,1.22-1.53.3-.61.68-1.36,1.78-2.22,1.1-.86,1.93-1.03,2.59-1.18.58-.13,1.04-.23,1.79-.8.74-.58.95-1,1.22-1.53.3-.61.68-1.36,1.78-2.22l.84-.55-2.06-2.65c-.34-.44-.97-.52-1.4-.18-1.1.86-1.48,1.61-1.78,2.22-.27.53-.48.96-1.22,1.53-.74.58-1.2.68-1.79.8-.66.14-1.49.32-2.59,1.18-1.1.85-1.48,1.61-1.78,2.22-.22.44-.42.81-.89,1.24.34.71.85,1.78.85,3.63,0,.28-.01.53-.03.77Z"/>
    <path class="cls-1" d="m30.79,10.3l-2.06-2.65-.9.6c-.68.53-.89.95-1.16,1.49-.3.61-.68,1.36-1.78,2.22s-1.93,1.03-2.59,1.18c-.58.13-1.04.23-1.79.8-.74.58-.95,1-1.22,1.53-.3.61-.68,1.36-1.78,2.22-1.1.85-1.93,1.03-2.59,1.17-.22.05-.43.1-.64.17-.1.25-.21.47-.3.66-.21.45-.27.55-.27,1.04s.05.59.26,1.03c.28.58.66,1.4.8,2.67.22-.41.47-.79,1.08-1.26.74-.58,1.2-.67,1.78-.8.66-.14,1.49-.32,2.59-1.17,1.1-.86,1.48-1.61,1.78-2.22.27-.53.48-.95,1.22-1.53.74-.58,1.2-.68,1.79-.8.66-.14,1.49-.32,2.59-1.18s1.48-1.61,1.78-2.22c.27-.53.48-.96,1.22-1.53.44-.34.52-.97.18-1.4Z"/>
  </g>
  <g>
    <path class="cls-2" d="m25.34,24.53c-.37-.41-1-.44-1.41-.07-.41.37-.44,1-.07,1.41l1.92,2.11c.2.22.47.33.74.33.24,0,.48-.09.67-.26.41-.37.44-1,.07-1.41l-1.92-2.11Z"/>
    <path class="cls-2" d="m19.39,26.81c-.54-.02-1.02.4-1.05.95l-.08,1.56c-.03.55.4,1.02.95,1.05.02,0,.03,0,.05,0,.53,0,.97-.42,1-.95l.08-1.56c.03-.55-.4-1.02-.95-1.05Z"/>
    <path class="cls-2" d="m29.31,19.3l-1.56-.08c-.56-.02-1.02.4-1.05.95-.03.55.4,1.02.95,1.05l1.56.08s.03,0,.05,0c.53,0,.97-.42,1-.95.03-.55-.4-1.02-.95-1.05Z"/>
    <path class="cls-2" d="m12.84,6.67c0-1.4-.37-2.16-.66-2.77-.26-.54-.46-.96-.46-1.9,0-.55-.45-1-1-1H2c-.55,0-1,.45-1,1,0,1.4.37,2.16.66,2.77.26.54.46.96.46,1.9s-.2,1.37-.46,1.9c-.29.61-.66,1.37-.66,2.77s.37,2.16.66,2.77c.26.54.46.96.46,1.9s-.2,1.36-.46,1.9c-.29.61-.66,1.37-.66,2.76s.37,2.15.66,2.76c.26.54.46.96.46,1.9s-.2,1.36-.46,1.9c-.29.61-.66,1.37-.66,2.77,0,.55.45,1,1,1h8.72c.55,0,1-.45,1-1,0-.94.2-1.36.46-1.9.29-.61.66-1.37.66-2.76s-.37-2.15-.66-2.76c-.26-.54-.46-.96-.46-1.9s.2-1.36.46-1.9c.29-.61.66-1.37.66-2.76s-.36-2.16-.66-2.77c-.26-.54-.46-.96-.46-1.9s.2-1.37.46-1.9c.29-.61.66-1.37.66-2.77ZM3.46,22.57c-.26-.54-.46-.96-.46-1.9s.2-1.36.46-1.9c.29-.61.66-1.37.66-2.76s-.37-2.16-.66-2.77c-.26-.54-.46-.96-.46-1.9s.2-1.37.46-1.9c.29-.61.66-1.37.66-2.77s-.37-2.16-.66-2.77c-.14-.3-.27-.56-.35-.9h2.25c.12.79.37,1.32.59,1.77.26.54.46.96.46,1.9s-.2,1.37-.46,1.9c-.29.61-.66,1.37-.66,2.77s.37,2.16.66,2.77c.26.54.46.96.46,1.9s-.2,1.36-.46,1.9c-.29.61-.66,1.37-.66,2.76s.37,2.15.66,2.76c.26.54.46.96.46,1.9s-.2,1.36-.46,1.9c-.21.45-.46.97-.59,1.77h-2.25c.08-.34.21-.6.35-.9.29-.61.66-1.37.66-2.77s-.37-2.15-.66-2.76Zm6.92-8.46c.26.54.46.96.46,1.9s-.2,1.36-.46,1.9c-.29.61-.66,1.37-.66,2.76s.37,2.15.66,2.76c.26.54.46.96.46,1.9s-.2,1.36-.46,1.9c-.21.45-.47.97-.59,1.77h-2.4c.08-.33.21-.6.35-.9.29-.61.66-1.37.66-2.76s-.37-2.15-.66-2.76c-.26-.54-.46-.96-.46-1.9s.2-1.36.46-1.9c.29-.61.66-1.37.66-2.76s-.37-2.16-.66-2.77c-.26-.54-.46-.96-.46-1.9s.2-1.37.46-1.9c.29-.61.66-1.37.66-2.77s-.37-2.16-.66-2.77c-.14-.3-.26-.57-.35-.9h2.4c.12.79.37,1.32.59,1.77.26.54.46.96.46,1.9s-.2,1.37-.46,1.9c-.29.61-.66,1.37-.66,2.77s.36,2.16.66,2.77Z"/>
  </g>
</svg>