<?xml version="1.0" encoding="UTF-8"?>
<svg id="OBJECT" xmlns="http://www.w3.org/2000/svg" viewBox="0 0 32 32">
  <defs>
    <style>
      .cls-1 {
        fill: #7738c8;
      }

      .cls-1, .cls-2 {
        stroke-width: 0px;
      }

      .cls-2 {
        fill: #011839;
      }
    </style>
  </defs>
  <g>
    <path class="cls-1" d="m26.5,23.47H5.5c-.55,0-1,.45-1,1s.45,1,1,1h1.65l.4.47c.41.83,1.25,1.35,2.18,1.35h12.55c.93,0,1.76-.52,2.18-1.34l.4-.47h1.65c.55,0,1-.45,1-1s-.45-1-1-1Z"/>
    <path class="cls-1" d="m24.61,21.05c0-1.66-1.34-3-3-3h-11.23c-1.66,0-3,1.34-3,3v.42h17.23v-.42Z"/>
    <path class="cls-1" d="m19.21,15.71c0-1.1-.9-2-2-2h-2.41c-1.1,0-2,.9-2,2v.34h6.41v-.34Z"/>
  </g>
  <g>
    <path class="cls-2" d="m28,5h-.5v-3c0-.55-.45-1-1-1h-5c-.55,0-1,.45-1,1v3h-9v-3c0-.55-.45-1-1-1h-5c-.55,0-1,.45-1,1v3h-.5c-1.65,0-3,1.35-3,3v20c0,1.65,1.35,3,3,3h24c1.65,0,3-1.35,3-3V8c0-1.65-1.35-3-3-3Zm-5.5-2h3v2h-3v-2Zm-16,0h3v2h-3v-2Zm-2.5,4h24c.55,0,1,.45,1,1v2H3v-2c0-.55.45-1,1-1Zm24,22H4c-.55,0-1-.45-1-1V12h26v16c0,.55-.45,1-1,1Z"/>
    <path class="cls-2" d="m27,13h-1c-.55,0-1,.45-1,1s.45,1,1,1h1c.55,0,1-.45,1-1s-.45-1-1-1Z"/>
    <path class="cls-2" d="m6,13h-1c-.55,0-1,.45-1,1s.45,1,1,1h1c.55,0,1-.45,1-1s-.45-1-1-1Z"/>
  </g>
</svg>