<?xml version="1.0" encoding="UTF-8"?>
<svg id="OBJECT" xmlns="http://www.w3.org/2000/svg" viewBox="0 0 32 32">
  <defs>
    <style>
      .cls-1 {
        fill: #7738c8;
      }

      .cls-1, .cls-2 {
        stroke-width: 0px;
      }

      .cls-2 {
        fill: #011839;
      }
    </style>
  </defs>
  <path class="cls-1" d="m22.5,6.9c-1.43,0-2.63,1.02-2.91,2.37h5.81c-.28-1.35-1.47-2.37-2.91-2.37Z"/>
  <path class="cls-1" d="m22.5,1c-4.69,0-8.5,3.81-8.5,8.5s3.81,8.5,8.5,8.5,8.5-3.81,8.5-8.5S27.19,1,22.5,1Zm2.79,13.81h-5.57c-.55,0-1-.45-1-1s.45-1,1-1h5.57c.55,0,1,.45,1,1s-.45,1-1,1Zm2.6-3.54h-10.77c-.55,0-1-.45-1-1s.45-1,1-1h.48c.26-2.12,1.84-3.84,3.91-4.27v-.19c0-.55.45-1,1-1s1,.45,1,1v.19c2.07.42,3.65,2.15,3.91,4.27h.48c.55,0,1,.45,1,1s-.45,1-1,1Z"/>
  <path class="cls-2" d="m18.13,31c-.5,0-1-.09-1.48-.28l-.33-.13c-3.4-1.33-6.43-3.31-9.01-5.89-2.58-2.58-4.56-5.61-5.89-9.01l-.13-.34c-.59-1.51-.23-3.22.92-4.36l.16-.16c1.2-1.2,2.67-2.12,4.27-2.66,1.51-.51,3.13.2,3.77,1.65l1.14,2.58c.61,1.38.13,2.98-1.14,3.8l-1.23.79c1.3,2.51,3.33,4.54,5.84,5.84l.79-1.23c.82-1.27,2.42-1.75,3.8-1.14l2.58,1.14h0c1.46.64,2.17,2.27,1.66,3.77l-.18.52c-.43,1.26-1.15,2.43-2.1,3.37l-.55.55c-.78.78-1.82,1.19-2.88,1.19ZM7.62,10c-.11,0-.23.02-.34.06-1.31.45-2.52,1.2-3.5,2.18l-.16.16c-.58.58-.77,1.46-.47,2.22l.13.34c1.23,3.14,3.06,5.94,5.44,8.32s5.18,4.21,8.33,5.44l.33.13c.77.3,1.64.12,2.22-.46l.55-.55c.73-.73,1.29-1.63,1.62-2.6l.18-.52c.18-.52-.07-1.08-.57-1.3l-2.58-1.14c-.48-.21-1.03-.05-1.31.39l-1.27,1.97c-.27.41-.8.57-1.24.37-3.58-1.58-6.42-4.42-7.99-7.99-.2-.45-.04-.98.37-1.24l1.97-1.27c.44-.28.6-.83.39-1.31l-1.14-2.58c-.17-.39-.55-.63-.96-.63Z"/>
</svg>