<?xml version="1.0" encoding="UTF-8"?>
<svg id="OBJECT" xmlns="http://www.w3.org/2000/svg" viewBox="0 0 32 32">
  <defs>
    <style>
      .cls-1 {
        fill: #7738c8;
      }

      .cls-1, .cls-2 {
        stroke-width: 0px;
      }

      .cls-2 {
        fill: #011839;
      }
    </style>
  </defs>
  <g>
    <path class="cls-1" d="m14,5h-6c-.55,0-1,.45-1,1s.45,1,1,1h6c.55,0,1-.45,1-1s-.45-1-1-1Z"/>
    <path class="cls-1" d="m14,8.5h-6c-.55,0-1,.45-1,1s.45,1,1,1h6c.55,0,1-.45,1-1s-.45-1-1-1Z"/>
    <path class="cls-1" d="m14,12h-6c-.55,0-1,.45-1,1s.45,1,1,1h6c.55,0,1-.45,1-1s-.45-1-1-1Z"/>
    <path class="cls-1" d="m24,12h-1c-.55,0-1,.45-1,1s.45,1,1,1h1c.55,0,1-.45,1-1s-.45-1-1-1Z"/>
    <path class="cls-1" d="m20,12h-1c-.55,0-1,.45-1,1s.45,1,1,1h1c.55,0,1-.45,1-1s-.45-1-1-1Z"/>
    <rect class="cls-1" x="17.69" y="5" width="7.38" height="5.5" rx="1" ry="1"/>
  </g>
  <g>
    <path class="cls-2" d="m28,20h-3.5v-2h2c1.38,0,2.5-1.12,2.5-2.5V3.5c0-1.38-1.12-2.5-2.5-2.5H5.5c-1.38,0-2.5,1.12-2.5,2.5v12c0,1.38,1.12,2.5,2.5,2.5h2v2h-3.5c-1.65,0-3,1.35-3,3v5c0,.55.45,1,1,1h13.07v1c0,.55.45,1,1,1h8c.55,0,1-.45,1-1v-1h4.93c.55,0,1-.45,1-1v-5c0-1.65-1.35-3-3-3ZM5,15.5V3.5c0-.28.22-.5.5-.5h21c.28,0,.5.22.5.5v12c0,.28-.22.5-.5.5H5.5c-.28,0-.5-.22-.5-.5Zm4.5,2.5h13v2h-13v-2Zm7.57,11v-3.5h6v3.5h-6Zm11.93-2h-3.93v-1.5h1.5c.55,0,1-.45,1-1s-.45-1-1-1h-13c-.55,0-1,.45-1,1s.45,1,1,1h1.5v1.5H3v-4c0-.55.45-1,1-1h24c.55,0,1,.45,1,1v4Z"/>
    <path class="cls-2" d="m10.57,23.5h-1c-.55,0-1,.45-1,1s.45,1,1,1h1c.55,0,1-.45,1-1s-.45-1-1-1Z"/>
    <path class="cls-2" d="m6.57,23.5h-1c-.55,0-1,.45-1,1s.45,1,1,1h1c.55,0,1-.45,1-1s-.45-1-1-1Z"/>
  </g>
</svg>