<?xml version="1.0" encoding="UTF-8"?>
<svg id="OBJECT" xmlns="http://www.w3.org/2000/svg" viewBox="0 0 32 32">
  <defs>
    <style>
      .cls-1 {
        fill: #7738c8;
      }

      .cls-1, .cls-2 {
        stroke-width: 0px;
      }

      .cls-2 {
        fill: #011839;
      }
    </style>
  </defs>
  <g>
    <path class="cls-1" d="m9.09,25.57h-1.04c-.55,0-1,.45-1,1s.45,1,1,1h1.04c.55,0,1-.45,1-1s-.45-1-1-1Z"/>
    <path class="cls-1" d="m18.31,23.68h-1.04c-.55,0-1,.45-1,1s.45,1,1,1h1.04c.55,0,1-.45,1-1s-.45-1-1-1Z"/>
    <path class="cls-1" d="m19.88,19.07h-1.04c-.55,0-1,.45-1,1s.45,1,1,1h1.04c.55,0,1-.45,1-1s-.45-1-1-1Z"/>
    <path class="cls-1" d="m25.08,20.15h1.04c.55,0,1-.45,1-1s-.45-1-1-1h-1.04c-.55,0-1,.45-1,1s.45,1,1,1Z"/>
    <circle class="cls-1" cx="12.22" cy="20.64" r="3.08"/>
    <path class="cls-1" d="m24.13,21.42c-1.7,0-3.08,1.38-3.08,3.08s1.38,3.08,3.08,3.08,3.08-1.38,3.08-3.08-1.38-3.08-3.08-3.08Z"/>
  </g>
  <g>
    <path class="cls-2" d="m24.24,7.32c-.15-.02-.3,0-.44.05L3.67,14.5c-.4.14-.67.52-.67.94v4.32c0,.55.45,1,1,1,.88,0,1.6.72,1.6,1.6s-.72,1.6-1.6,1.6c-.55,0-1,.45-1,1v5.04c0,.55.45,1,1,1h7.36c.55,0,1-.45,1-1,0-.88.72-1.6,1.6-1.6s1.6.72,1.6,1.6c0,.55.45,1,1,1h13.44c.55,0,1-.45,1-1v-14.56c0-5.83-4.42-7.86-6.76-8.12Zm-.01,2.02c.89.17,4.23,1.07,4.72,5.1H9.82l14.4-5.1Zm-6.8,19.66c-.43-1.5-1.82-2.6-3.46-2.6s-3.02,1.1-3.46,2.6h-5.5v-3.18c1.5-.43,2.6-1.82,2.6-3.46s-1.1-3.02-2.6-3.46v-2.46h24v12.56h-11.58Z"/>
    <path class="cls-2" d="m7.95,5.4c.16.38.53.6.92.6.13,0,.27-.03.4-.08.51-.22.74-.81.52-1.32l-1.31-3c-.22-.51-.81-.74-1.32-.52-.51.22-.74.81-.52,1.32l1.31,3Z"/>
    <path class="cls-2" d="m15.17,5.01c.12.05.24.07.36.07.4,0,.78-.24.93-.64l.65-1.67c.2-.51-.05-1.09-.57-1.3-.51-.2-1.09.05-1.3.57l-.65,1.67c-.2.51.05,1.09.57,1.3Z"/>
    <path class="cls-2" d="m3.67,10.28c.4,0,.78-.24.93-.64.2-.51-.05-1.09-.57-1.3l-1.67-.65c-.52-.2-1.09.05-1.3.57-.2.51.05,1.09.57,1.3l1.67.65c.12.05.24.07.36.07Z"/>
  </g>
</svg>