<?xml version="1.0" encoding="UTF-8"?>
<svg id="OBJECT" xmlns="http://www.w3.org/2000/svg" viewBox="0 0 32 32">
  <defs>
    <style>
      .cls-1 {
        fill: #7738c8;
      }

      .cls-1, .cls-2 {
        stroke-width: 0px;
      }

      .cls-2 {
        fill: #011839;
      }
    </style>
  </defs>
  <g>
    <path class="cls-1" d="m12.58,29.42c.82-.15,1.64-.24,2.47-.28v-4.27c-.94.02-1.88.08-2.81.17l.34,4.38Z"/>
    <path class="cls-1" d="m17,29.19c.79.04,1.58.14,2.37.28l.34-4.37c-.9-.09-1.8-.15-2.71-.18v4.27Z"/>
    <path class="cls-1" d="m21.74,25.31l-.36,4.58c.93.27,1.85.6,2.75,1.02.13.06.28.09.43.09.17,0,.35-.04.5-.13.28-.16.47-.46.5-.78l.31-3.66c-1.37-.38-2.73-.89-4.12-1.11Z"/>
    <path class="cls-1" d="m6.13,26.4l.31,3.69c.03.33.25.6.54.76.28.16.67.16.97.02.87-.4,1.76-.71,2.67-.98l-.36-4.59c-1.39.22-2.76.72-4.12,1.1Z"/>
  </g>
  <g>
    <path class="cls-2" d="m16,4.9h.01c.55,0,.99-.46.99-1.01l-.02-1.9c0-.55-.45-.99-1-.99h-.01c-.55,0-.99.46-.99,1.01l.02,1.9c0,.55.45.99,1,.99Z"/>
    <path class="cls-2" d="m8.8,5.72c.19.19.45.28.7.28s.52-.1.72-.3c.39-.4.38-1.03-.02-1.41l-.74-.72c-.4-.39-1.03-.38-1.41.02-.39.4-.38,1.03.02,1.41l.74.72Z"/>
    <path class="cls-2" d="m22.52,5.91c.26,0,.52-.1.72-.3l.72-.74c.39-.4.38-1.03-.02-1.41-.4-.39-1.03-.38-1.41.02l-.72.74c-.39.4-.38,1.03.02,1.41.19.19.45.28.7.28Z"/>
    <path class="cls-2" d="m27.5,11.81c-2.04-1.27-3.17-1.49-4.28-1.44-1.55-2.49-4.26-4.01-7.21-4.01s-5.66,1.52-7.21,4.01c-1.1-.05-2.24.17-4.29,1.45-2.1,1.32-3.41,3.47-3.49,5.77-.11,3.06,1.62,5.85,4.41,7.1.25.11.54.11.79.01,6.3-2.47,13.24-2.46,19.53.04.12.05.24.07.37.07.14,0,.28-.03.4-.08,2.83-1.25,4.59-4.05,4.48-7.13-.08-2.3-1.39-4.46-3.5-5.78Zm-1.43,10.91c-.63-.24-1.28-.45-1.92-.64.75-.54,1.42-1.17,1.69-1.85.2-.51-.05-1.09-.56-1.3-.51-.21-1.1.05-1.3.56-.15.38-1.15,1.17-2.6,1.9-1.45-.28-2.92-.45-4.39-.51v-2.2c0-.55-.45-1-1-1s-1,.45-1,1v2.19c-1.5.05-3,.22-4.48.51-1.43-.76-2.35-1.53-2.5-1.9-.21-.51-.79-.76-1.3-.55-.51.21-.76.79-.55,1.3.26.66.91,1.28,1.64,1.82-.64.19-1.28.4-1.92.64-1.83-.99-2.95-2.92-2.88-5.03.06-1.63,1.01-3.18,2.55-4.14,1.21-.76,1.94-1.03,2.53-1.12-.24,1.48-.29,3.97,1.34,6.2.2.27.5.41.81.41.2,0,.41-.06.59-.19.45-.33.54-.95.22-1.4-1.68-2.3-.92-5.13-.78-5.6,1.14-2.14,3.33-3.46,5.74-3.46s4.6,1.33,5.74,3.46c.14.49.86,3.3-.82,5.6-.33.45-.23,1.07.22,1.4.18.13.38.19.59.19.31,0,.61-.14.81-.41,1.63-2.23,1.59-4.73,1.37-6.21.59.08,1.32.36,2.54,1.12,1.55.97,2.5,2.52,2.56,4.15.07,2.13-1.07,4.07-2.93,5.06Z"/>
    <path class="cls-2" d="m16,9.85c-.36,0-.67.04-.97.11-.54.13-.86.68-.73,1.21.13.54.68.86,1.21.73.14-.03.29-.05.49-.05,1.12,0,2.14.62,2.66,1.63.18.34.53.54.89.54.15,0,.31-.04.46-.11.49-.25.68-.86.43-1.35-.86-1.67-2.56-2.71-4.44-2.71Z"/>
    <path class="cls-2" d="m12.12,11.72c-.21.24-.39.52-.56.84-.25.49-.06,1.09.43,1.35.15.08.31.11.46.11.36,0,.71-.2.89-.54.1-.18.19-.33.3-.46.36-.42.31-1.05-.11-1.41-.42-.36-1.05-.31-1.41.11Z"/>
  </g>
</svg>