<?xml version="1.0" encoding="UTF-8"?>
<svg id="OBJECT" xmlns="http://www.w3.org/2000/svg" viewBox="0 0 32 32">
  <defs>
    <style>
      .cls-1 {
        fill: #7738c8;
      }

      .cls-1, .cls-2 {
        stroke-width: 0px;
      }

      .cls-2 {
        fill: #011839;
      }
    </style>
  </defs>
  <path class="cls-1" d="m29.94,10.54h0c1.43-1.45,1.41-3.79-.03-5.21-.6-.6-1.39-.96-2.23-1.04-.09-.83-.46-1.62-1.06-2.21-.7-.7-1.66-1.07-2.62-1.07-.98,0-1.91.39-2.59,1.09-.7.7-1.08,1.63-1.07,2.62,0,.65.17,1.27.49,1.81-.53.55-1.37,1.41-2.09,2.15-.48.49-.95.97-1.38,1.42l4.54,4.58c.27-.26.54-.53.83-.82.92-.91,2.09-2.05,2.77-2.71,1.41.79,3.24.58,4.44-.62Z"/>
  <g>
    <path class="cls-2" d="m30.42,24.39l-2.59-1.21c-.5-.23-1.1-.02-1.33.48-.23.5-.02,1.1.48,1.33l2.59,1.21c.14.06.28.09.42.09.38,0,.74-.21.91-.58.23-.5.02-1.1-.48-1.33Z"/>
    <path class="cls-2" d="m24.52,28.19c-.19-.52-.76-.79-1.28-.6-.52.19-.79.76-.6,1.28l.53,1.46c.15.41.53.66.94.66.11,0,.23-.02.34-.06.52-.19.79-.76.6-1.28l-.53-1.46Z"/>
    <path class="cls-2" d="m28.35,19.3c.11,0,.23-.02.34-.06l1.46-.53c.52-.19.79-.76.6-1.28-.19-.52-.76-.79-1.28-.6l-1.46.53c-.52.19-.79.76-.6,1.28.15.41.53.66.94.66Z"/>
    <path class="cls-2" d="m7.11,5.02c.16.38.53.61.92.61.13,0,.26-.03.39-.08.51-.21.75-.8.53-1.31l-1.11-2.63c-.21-.51-.8-.75-1.31-.53-.51.21-.75.8-.53,1.31l1.11,2.63Z"/>
    <path class="cls-2" d="m13.48,4.84c.12.05.25.07.38.07.39,0,.77-.24.93-.62l.59-1.44c.21-.51-.04-1.1-.55-1.3-.51-.21-1.1.04-1.3.55l-.59,1.44c-.21.51.04,1.1.55,1.3Z"/>
    <path class="cls-2" d="m1.62,8.63l1.44.59c.12.05.25.07.38.07.39,0,.77-.24.93-.62.21-.51-.04-1.1-.55-1.3l-1.44-.59c-.51-.21-1.1.04-1.3.55-.21.51.04,1.1.55,1.3Z"/>
    <path class="cls-2" d="m20.33,15.34c-.54-.12-1.07.22-1.19.76l-1.62,7.45c-.53,1.82-1.57,3.31-2.93,4.2-1.23.81-2.65,1.24-4.11,1.24-.39,0-.7-.02-1.01-.07-3.28-.45-5.9-3.05-6.39-6.32-.26-1.8.13-3.62,1.1-5.13.88-1.37,2.37-2.43,4.1-2.96l7.65-1.66c.54-.12.88-.65.77-1.19s-.65-.88-1.19-.77l-7.73,1.68c-2.27.69-4.14,2.04-5.28,3.81-1.23,1.91-1.73,4.21-1.4,6.5.61,4.15,3.94,7.45,8.07,8.01.4.06.81.09,1.31.09,1.85,0,3.65-.54,5.21-1.56,1.76-1.15,3.09-3.04,3.77-5.38l1.64-7.52c.12-.54-.22-1.07-.76-1.19Z"/>
    <path class="cls-2" d="m9.67,27.45c.24.04.5.05.81.05,1.16,0,2.29-.34,3.29-.98,1.03-.67,1.84-1.83,2.28-3.25.16-.53-.13-1.09-.66-1.25-.53-.17-1.09.13-1.25.66-.3.98-.82,1.75-1.46,2.16-.67.43-1.43.66-2.2.66-.19,0-.35,0-.49-.03-.54-.09-1.06.28-1.14.83-.09.54.28,1.06.83,1.14Z"/>
    <path class="cls-2" d="m10.37,15.56c-.37-.41-1.01-.43-1.41-.06-.41.37-.43,1.01-.06,1.41.15.16.3.31.47.45.19.16.42.24.65.24.28,0,.56-.12.76-.35.36-.42.31-1.05-.11-1.41-.11-.09-.21-.19-.31-.29Z"/>
    <path class="cls-2" d="m9.73,19.57c-.41.37-.43,1.01-.06,1.41.15.16.3.3.47.45.19.16.42.24.65.24.28,0,.56-.12.76-.35.36-.42.31-1.05-.11-1.41-.11-.09-.21-.19-.31-.29-.38-.41-1.01-.43-1.41-.06Z"/>
    <path class="cls-2" d="m5.59,18.69c-.41.37-.43,1.01-.06,1.41.15.16.3.31.48.45.19.16.42.24.65.24.28,0,.56-.12.76-.35.36-.42.31-1.05-.11-1.41-.11-.09-.21-.19-.3-.29-.37-.41-1.01-.44-1.41-.06Z"/>
  </g>
</svg>