<?xml version="1.0" encoding="UTF-8"?>
<svg id="OBJECT" xmlns="http://www.w3.org/2000/svg" viewBox="0 0 32 32">
  <defs>
    <style>
      .cls-1 {
        fill: #7738c8;
      }

      .cls-1, .cls-2 {
        stroke-width: 0px;
      }

      .cls-2 {
        fill: #011839;
      }
    </style>
  </defs>
  <g>
    <path class="cls-1" d="m26.84,22.79c.55,0,1-.45,1-1s-.45-1-1-1h-.72v-2.15h.72c.55,0,1-.45,1-1s-.45-1-1-1h-1.72c-.55,0-1,.45-1,1v8.3c0,.55.45,1,1,1h1.72c.55,0,1-.45,1-1s-.45-1-1-1h-.72v-2.15h.72Z"/>
    <path class="cls-1" d="m6.88,18.64c.55,0,1-.45,1-1s-.45-1-1-1h-1.72c-.55,0-1,.45-1,1v8.3c0,.55.45,1,1,1h1.72c.55,0,1-.45,1-1s-.45-1-1-1h-.72v-6.3h.72Z"/>
    <path class="cls-1" d="m11.85,24.94h-.68v-7.3c0-.55-.45-1-1-1s-1,.45-1,1v8.3c0,.55.45,1,1,1h1.68c.55,0,1-.45,1-1s-.45-1-1-1Z"/>
    <path class="cls-1" d="m17.32,16.64h-2.64c-.55,0-1,.45-1,1v8.3c0,.55.45,1,1,1h2.64c.55,0,1-.45,1-1v-8.3c0-.55-.45-1-1-1Zm-1,8.3h-.64v-6.3h.64v6.3Z"/>
    <path class="cls-1" d="m21.85,18.64c.55,0,1-.45,1-1s-.45-1-1-1h-1.72c-.55,0-1,.45-1,1v4.15c0,.55.45,1,1,1h.72v2.15h-.72c-.55,0-1,.45-1,1s.45,1,1,1h1.72c.55,0,1-.45,1-1v-4.15c0-.55-.45-1-1-1h-.72v-2.15h.72Z"/>
  </g>
  <path class="cls-2" d="m30.61,12.8L19.45,3.97c-.26-1.68-1.7-2.97-3.45-2.97s-3.19,1.29-3.45,2.97L1.39,12.8c-.23.18-.39.45-.39.77v16.43c0,.55.45,1,1,1h28c.55,0,1-.45,1-1V13.57c0-.32-.16-.59-.39-.77Zm-14.61-4.8c1.31,0,2.44-.73,3.04-1.8l8.08,6.37H4.88l8.08-6.37c.6,1.07,1.73,1.8,3.04,1.8Zm0-5c.83,0,1.5.67,1.5,1.5s-.67,1.5-1.5,1.5-1.5-.67-1.5-1.5.67-1.5,1.5-1.5Zm13,26H3v-14.43h26v14.43Z"/>
</svg>