<?xml version="1.0" encoding="UTF-8"?>
<svg id="OBJECT" xmlns="http://www.w3.org/2000/svg" viewBox="0 0 32 32">
  <defs>
    <style>
      .cls-1 {
        fill: #7738c8;
      }

      .cls-1, .cls-2 {
        stroke-width: 0px;
      }

      .cls-2 {
        fill: #011839;
      }
    </style>
  </defs>
  <g>
    <path class="cls-1" d="m26,13h-1.11c-.13-.98-.96-1.75-1.97-1.75h-13.83c-1.02,0-1.85.76-1.97,1.75h-1.11c-.55,0-1,.45-1,1s.45,1,1,1h20c.55,0,1-.45,1-1s-.45-1-1-1Z"/>
    <path class="cls-1" d="m19.5,8.75c0-1.1-.9-2-2-2h-3c-1.1,0-2,.9-2,2v.5h7v-.5Z"/>
  </g>
  <g>
    <path class="cls-2" d="m4.99,5.82c.2.23.48.35.76.35.23,0,.46-.08.65-.24.42-.36.46-.99.1-1.41l-1.46-1.69c-.36-.42-.99-.46-1.41-.1s-.46.99-.1,1.41l1.46,1.69Z"/>
    <path class="cls-2" d="m9.84,4.21s.05,0,.07,0c.52,0,.96-.4,1-.93l.09-1.22c.04-.55-.37-1.03-.92-1.07-.56-.04-1.03.37-1.07.92l-.09,1.22c-.04.55.37,1.03.92,1.07Z"/>
    <path class="cls-2" d="m3.14,10s.05,0,.07,0c.52,0,.96-.4,1-.93.04-.55-.37-1.03-.92-1.07l-1.22-.09c-.56-.04-1.03.37-1.07.92-.04.55.37,1.03.92,1.07l1.22.09Z"/>
    <path class="cls-2" d="m26.25,6.16c.28,0,.56-.12.76-.35l1.46-1.69c.36-.42.31-1.05-.1-1.41-.42-.36-1.05-.31-1.41.1l-1.46,1.69c-.36.42-.31,1.05.1,1.41.19.16.42.24.65.24Z"/>
    <path class="cls-2" d="m22.09,4.22s.05,0,.07,0c.55-.04.96-.52.92-1.07l-.09-1.22c-.04-.55-.52-.96-1.07-.92-.55.04-.96.52-.92,1.07l.09,1.22c.04.53.48.93,1,.93Z"/>
    <path class="cls-2" d="m29.93,7.92l-1.22.09c-.55.04-.96.52-.92,1.07.04.53.48.93,1,.93.02,0,.05,0,.07,0l1.22-.09c.55-.04.96-.52.92-1.07-.04-.55-.52-.97-1.07-.92Z"/>
    <path class="cls-2" d="m19,27.5c1.93,0,3.5-1.57,3.5-3.5v-4.5c0-.55-.45-1-1-1s-1,.45-1,1v4.5c0,.83-.67,1.5-1.5,1.5-.55,0-1,.45-1,1s.45,1,1,1Z"/>
    <path class="cls-2" d="m29.28,17.55l-3.28.73v-1.28c0-.55-.45-1-1-1s-1,.45-1,1v7c0,2.76-2.24,5-5,5h-6c-2.76,0-5-2.24-5-5v-7c0-.55-.45-1-1-1s-1,.45-1,1v1.28l-3.28-.73c-.3-.06-.61,0-.84.2-.24.19-.37.48-.37.78v1.48c0,1.45,1.04,2.69,2.4,2.94l2.1.51v.54c0,3.86,3.14,7,7,7h6c3.86,0,7-3.14,7-7v-.54l2.04-.5c1.43-.26,2.46-1.5,2.46-2.95v-1.48c0-.3-.14-.59-.37-.78-.24-.19-.55-.26-.84-.2Zm-24.96,3.44c-.48-.09-.82-.5-.82-.98v-.24l2.5.56v1.08l-1.68-.41Zm24.18-.98c0,.48-.35.9-.88,1l-1.62.4v-1.07l2.5-.56v.24Z"/>
    <path class="cls-2" d="m9.5,19c0,.55.45,1,1,1h1c.55,0,1-.45,1-1s-.45-1-1-1h-1c-.55,0-1,.45-1,1Z"/>
  </g>
</svg>