<?xml version="1.0" encoding="UTF-8"?>
<svg id="OBJECT" xmlns="http://www.w3.org/2000/svg" viewBox="0 0 32 32">
  <defs>
    <style>
      .cls-1 {
        fill: #7738c8;
      }

      .cls-1, .cls-2 {
        stroke-width: 0px;
      }

      .cls-2 {
        fill: #011839;
      }
    </style>
  </defs>
  <path class="cls-1" d="m6.32,1.06c-.39-.14-.84-.02-1.11.3C2.5,4.61,1,8.74,1,12.98v2.98c0,.19.05.38.16.54l1.75,2.73v2.71h4.07V2c0-.42-.26-.8-.66-.94Z"/>
  <path class="cls-1" d="m2.91,30c0,.55.45,1,1,1h2.07c.55,0,1-.45,1-1v-6.07H2.91v6.07Z"/>
  <g>
    <path class="cls-2" d="m30,1c-.55,0-1,.45-1,1v5.39h-1.12V2c0-.55-.45-1-1-1s-1,.45-1,1v5.39h-1.12V2c0-.55-.45-1-1-1s-1,.45-1,1v7.94c0,1.08.48,2.05,1.23,2.72l-.78,14.22c-.07,1.1.32,2.18,1.06,2.96.7.74,1.63,1.15,2.62,1.15s1.92-.41,2.62-1.15c.74-.78,1.12-1.86,1.06-2.95l-.78-14.23c.75-.67,1.22-1.64,1.22-2.72V2c0-.55-.45-1-1-1Zm-1,8.94c0,.92-.75,1.68-1.68,1.68h-.89c-.92,0-1.68-.75-1.68-1.68v-.55h4.25v.55Zm-.95,18.54c-.63.67-1.7.67-2.33,0-.36-.38-.55-.92-.52-1.47l.52-9.48h2.32l.52,9.49c.03.55-.15,1.08-.52,1.47Zm-.12-12.96h-2.1l.11-1.95c.16.02.33.05.5.05h.89c.17,0,.34-.03.5-.05l.11,1.95Z"/>
    <path class="cls-2" d="m15,1c-3.46,0-5.66,6.03-5.66,8.58,0,1.92,1.11,3.6,2.76,4.53l-.77,12.99c-.06,1.01.29,2,.98,2.74.69.74,1.67,1.16,2.68,1.16s1.99-.42,2.68-1.16c.69-.74,1.05-1.74.98-2.74l-.77-12.99c1.65-.92,2.76-2.61,2.76-4.53,0-2.55-2.2-8.58-5.66-8.58Zm1.22,27.47c-.64.69-1.81.69-2.45,0-.32-.34-.48-.78-.45-1.25l.5-8.42h2.35l.5,8.42c.03.46-.13.9-.45,1.24Zm-.17-11.67h-2.11l.12-2.02c.3.05.62.08.93.08s.63-.03.93-.08l.12,2.02Zm-1.05-3.94c-2.02,0-3.66-1.47-3.66-3.28,0-2.23,1.98-6.58,3.66-6.58s3.66,4.35,3.66,6.58c0,1.81-1.64,3.28-3.66,3.28Z"/>
  </g>
</svg>