<?xml version="1.0" encoding="UTF-8"?>
<svg id="OBJECT" xmlns="http://www.w3.org/2000/svg" viewBox="0 0 32 32">
  <defs>
    <style>
      .cls-1 {
        fill: #7738c8;
      }

      .cls-1, .cls-2 {
        stroke-width: 0px;
      }

      .cls-2 {
        fill: #011839;
      }
    </style>
  </defs>
  <g>
    <path class="cls-1" d="m17.69,23.07l-4.83-3.29-2.5,3.67c-.77,1.13-1.05,2.48-.8,3.82.25,1.34,1.01,2.5,2.14,3.27h0c.45.31.97.47,1.5.47.17,0,.33-.02.5-.05.7-.13,1.31-.53,1.71-1.12.46-.68.59-1.55.33-2.33l-.24-.75c-.06-.2-.03-.42.08-.59l2.11-3.09Z"/>
    <path class="cls-1" d="m24.7,5.03c-.16-.31-.48-.52-.83-.54-.36-.03-.69.14-.89.43l-9,13.2,7.49,5.1,2.3-3.38c3-4.4,3.36-10.08.93-14.82Z"/>
  </g>
  <g>
    <path class="cls-2" d="m28.5,1H3.5c-1.38,0-2.5,1.12-2.5,2.5v17c0,1.38,1.12,2.5,2.5,2.5h5.05c.55,0,1-.45,1-1s-.45-1-1-1H3.5c-.28,0-.5-.22-.5-.5V3.5c0-.28.22-.5.5-.5h25c.28,0,.5.22.5.5v17c0,.28-.22.5-.5.5h-3.4c-.55,0-1,.45-1,1s.45,1,1,1h3.4c1.38,0,2.5-1.12,2.5-2.5V3.5c0-1.38-1.12-2.5-2.5-2.5Z"/>
    <path class="cls-2" d="m8,4.5h-1c-1.38,0-2.5,1.12-2.5,2.5v10c0,1.38,1.12,2.5,2.5,2.5h1c1.38,0,2.5-1.12,2.5-2.5V7c0-1.38-1.12-2.5-2.5-2.5Zm.5,12.5c0,.28-.22.5-.5.5h-1c-.28,0-.5-.22-.5-.5V7c0-.28.22-.5.5-.5h1c.28,0,.5.22.5.5v10Z"/>
  </g>
</svg>