<?xml version="1.0" encoding="UTF-8"?>
<svg id="OBJECT" xmlns="http://www.w3.org/2000/svg" viewBox="0 0 32 32">
  <defs>
    <style>
      .cls-1 {
        fill: #7738c8;
      }

      .cls-1, .cls-2 {
        stroke-width: 0px;
      }

      .cls-2 {
        fill: #011839;
      }
    </style>
  </defs>
  <path class="cls-1" d="m30,29h-1v-.5c0-.55-.45-1-1-1H4c-.55,0-1,.45-1,1v.5h-1c-.55,0-1,.45-1,1s.45,1,1,1h28c.55,0,1-.45,1-1s-.45-1-1-1Z"/>
  <g>
    <path class="cls-2" d="m27.87,6.97c.17,0,.35-.04.51-.14l1.75-1.03c.48-.28.63-.89.36-1.37-.28-.48-.89-.64-1.37-.36l-1.75,1.03c-.48.28-.63.89-.36,1.37.19.32.52.49.86.49Z"/>
    <path class="cls-2" d="m24.59,4.05c.08.02.17.03.25.03.44,0,.85-.3.97-.75l.28-1.08c.14-.53-.18-1.08-.72-1.22-.54-.14-1.08.18-1.22.72l-.28,1.08c-.14.53.18,1.08.72,1.22Z"/>
    <path class="cls-2" d="m30.25,9.33l-1.08-.28c-.54-.14-1.08.18-1.22.72s.18,1.08.72,1.22l1.08.28c.08.02.17.03.25.03.44,0,.85-.3.97-.75.14-.53-.18-1.08-.72-1.22Z"/>
    <path class="cls-2" d="m1.87,5.8l1.75,1.03c.16.09.33.14.51.14.34,0,.68-.18.86-.49.28-.48.12-1.09-.36-1.37l-1.75-1.03c-.48-.28-1.09-.12-1.37.36-.28.48-.12,1.09.36,1.37Z"/>
    <path class="cls-2" d="m6.19,3.33c.12.45.52.75.97.75.08,0,.17,0,.25-.03.54-.14.86-.68.72-1.22l-.28-1.08c-.14-.53-.68-.86-1.22-.72-.54.14-.86.68-.72,1.22l.28,1.08Z"/>
    <path class="cls-2" d="m3.33,10.99c.54-.14.86-.68.72-1.22-.14-.53-.68-.86-1.22-.72l-1.08.28c-.54.14-.86.68-.72,1.22.12.45.52.75.97.75.08,0,.17,0,.25-.03l1.08-.28Z"/>
    <path class="cls-2" d="m25.35,19.27c-.09-.4-.21-.74-.36-1.06-.24-.5-.83-.71-1.33-.47-.5.24-.71.84-.47,1.33.09.18.16.39.22.64.11.46.52.77.97.77.08,0,.15,0,.23-.03.54-.13.87-.66.75-1.2Z"/>
    <path class="cls-2" d="m21.9,15.35c-.62-.23-1.26-.34-1.9-.34h-5c-.55,0-1,.45-1,1s.45,1,1,1h5c.41,0,.82.07,1.21.22.11.04.23.06.34.06.41,0,.79-.25.94-.66.19-.52-.08-1.09-.59-1.28Z"/>
    <path class="cls-2" d="m29,22v-1.49c0-4.96-4.04-9-9-9h-1v-1.55c1.42-.24,2.5-1.47,2.5-2.95,0-1.65-1.35-3-3-3h-5c-1.65,0-3,1.35-3,3,0,1.48,1.08,2.71,2.5,2.95v1.55h-1c-4.96,0-9,4.04-9,9v1.49c-.55,0-1,.45-1,1s.45,1,1,1h2.5v1.5c0,.55.45,1,1,1s1-.45,1-1v-1.5h17v1.5c0,.55.45,1,1,1s1-.45,1-1v-1.5h2.5c.55,0,1-.45,1-1s-.45-1-1-1ZM12.5,7.01c0-.55.45-1,1-1h5c.55,0,1,.45,1,1s-.45,1-1,1h-5c-.55,0-1-.45-1-1Zm2.5,3h2v1.5h-2v-1.5Zm-10,10.5c0-3.86,3.14-7,7-7h8c3.86,0,7,3.14,7,7v1.49H5v-1.49Z"/>
  </g>
</svg>