<?xml version="1.0" encoding="UTF-8"?>
<svg id="OBJECT" xmlns="http://www.w3.org/2000/svg" viewBox="0 0 32 32">
  <defs>
    <style>
      .cls-1 {
        fill: #7738c8;
      }

      .cls-1, .cls-2 {
        stroke-width: 0px;
      }

      .cls-2 {
        fill: #011839;
      }
    </style>
  </defs>
  <g>
    <path class="cls-1" d="m24,11H8c-.55,0-1,.45-1,1s.45,1,1,1h.75l.3,1.04c.12.43.52.73.96.73h11.99c.45,0,.84-.3.96-.73l.3-1.04h.75c.55,0,1-.45,1-1s-.45-1-1-1Z"/>
    <path class="cls-1" d="m17.62,6.69h-.62v-.99c0-.55-.45-1-1-1s-1,.45-1,1v.99h-.62c-1.81,0-3.41.92-4.37,2.31h11.97c-.96-1.39-2.56-2.31-4.37-2.31Z"/>
  </g>
  <g>
    <path class="cls-2" d="m5.4,6.16c.2.23.48.35.76.35.23,0,.46-.08.65-.24.42-.36.46-.99.1-1.41l-1.62-1.88c-.36-.42-.99-.46-1.41-.1-.42.36-.46.99-.1,1.41l1.62,1.88Z"/>
    <path class="cls-2" d="m10.7,4.35s.05,0,.07,0c.52,0,.96-.4,1-.93l.1-1.35c.04-.55-.37-1.03-.92-1.07-.57-.04-1.03.37-1.07.92l-.1,1.35c-.04.55.37,1.03.92,1.07Z"/>
    <path class="cls-2" d="m1.93,10.67l1.35.1s.05,0,.07,0c.52,0,.96-.4,1-.93.04-.55-.37-1.03-.92-1.07l-1.35-.1c-.56-.04-1.03.37-1.07.92-.04.55.37,1.03.92,1.07Z"/>
    <path class="cls-2" d="m25.84,6.51c.28,0,.56-.12.76-.35l1.62-1.88c.36-.42.31-1.05-.1-1.41-.42-.36-1.05-.32-1.41.1l-1.62,1.88c-.36.42-.31,1.05.1,1.41.19.16.42.24.65.24Z"/>
    <path class="cls-2" d="m21.22,4.35s.05,0,.07,0c.55-.04.96-.52.92-1.07l-.1-1.35c-.04-.55-.51-.96-1.07-.92-.55.04-.96.52-.92,1.07l.1,1.35c.04.53.48.93,1,.93Z"/>
    <path class="cls-2" d="m27.65,9.84c.04.53.48.93,1,.93.02,0,.05,0,.07,0l1.35-.1c.55-.04.96-.52.92-1.07-.04-.55-.5-.96-1.07-.92l-1.35.1c-.55.04-.96.52-.92,1.07Z"/>
    <path class="cls-2" d="m30,16.77H2c-.55,0-1,.45-1,1s.45,1,1,1h1.41v.81c0,1.88,1.53,3.41,3.41,3.41h4.09c1.29,2.09,1.93,3.65,1.96,6.01h-2.31c-.55,0-1,.45-1,1s.45,1,1,1h10.86c.55,0,1-.45,1-1s-.45-1-1-1h-2.31c.03-2.36.67-3.92,1.96-6.01h4.09c1.88,0,3.41-1.53,3.41-3.41v-.81h1.41c.55,0,1-.45,1-1s-.45-1-1-1Zm-12.88,12.23h-2.23c-.03-2.4-.58-4.1-1.65-6.01h5.53c-1.06,1.91-1.62,3.62-1.65,6.01Zm9.47-9.42c0,.78-.63,1.41-1.41,1.41H6.82c-.78,0-1.41-.63-1.41-1.41v-.81h21.18v.81Z"/>
  </g>
</svg>