<?xml version="1.0" encoding="UTF-8"?>
<svg id="OBJECT" xmlns="http://www.w3.org/2000/svg" viewBox="0 0 32 32">
  <defs>
    <style>
      .cls-1 {
        fill: #7738c8;
      }

      .cls-1, .cls-2 {
        stroke-width: 0px;
      }

      .cls-2 {
        fill: #011839;
      }
    </style>
  </defs>
  <g>
    <path class="cls-1" d="m22,27.18H2c-.55,0-1,.45-1,1s.45,1,1,1h1.81l.49.99c.25.51.77.83,1.34.83h12.7c.57,0,1.09-.32,1.34-.83l.49-.99h1.81c.55,0,1-.45,1-1s-.45-1-1-1Z"/>
    <path class="cls-1" d="m22,21.68H2c-.55,0-1,.45-1,1s.45,1,1,1h1.81l.49.99c.25.51.77.83,1.34.83h12.7c.57,0,1.09-.32,1.34-.83l.49-.99h1.81c.55,0,1-.45,1-1s-.45-1-1-1Z"/>
    <path class="cls-1" d="m2,18.18h1.81l.49.99c.25.51.77.83,1.34.83h12.7c.57,0,1.09-.32,1.34-.83l.49-.99h1.81c.55,0,1-.45,1-1s-.45-1-1-1H2c-.55,0-1,.45-1,1s.45,1,1,1Z"/>
  </g>
  <g>
    <path class="cls-2" d="m27.11,10.14c-4.88-4.47-12.48-4.13-16.95.75-.74.8-1.36,1.69-1.84,2.64-.25.49-.06,1.09.44,1.35.49.25,1.1.06,1.35-.44.4-.79.92-1.53,1.54-2.2,3.72-4.07,10.06-4.35,14.13-.63,4.07,3.73,4.34,10.07.62,14.13-.45.49-.94.94-1.48,1.32-.45.32-.55.95-.22,1.4.2.27.5.41.81.41.2,0,.41-.06.59-.19.64-.47,1.24-1,1.78-1.59,4.47-4.87,4.14-12.48-.74-16.95Z"/>
    <path class="cls-2" d="m25.28,20.72c-.14.53.17,1.08.71,1.23.09.02.17.03.26.03.44,0,.84-.29.96-.74.83-3.09-.11-6.35-2.46-8.51-1.04-.96-2.26-1.62-3.63-1.96-3.07-.78-6.28.17-8.39,2.5-.02.02-.04.04-.06.07-.05.06-.09.12-.12.18-.26.49-.08,1.09.41,1.35.44.23.97.11,1.27-.27,0,0,0,0,0-.01,1.61-1.76,4.06-2.47,6.4-1.88,1.06.26,1.96.75,2.77,1.5,1.8,1.65,2.52,4.14,1.88,6.51Z"/>
    <path class="cls-2" d="m5.62,3.19c-.36-.42-.99-.46-1.41-.1-.42.36-.46.99-.1,1.41l1.83,2.11c.2.23.48.35.76.35.23,0,.46-.08.65-.24.42-.36.46-.99.1-1.41l-1.83-2.11Z"/>
    <path class="cls-2" d="m11.82,4.52s.05,0,.07,0c.52,0,.96-.4,1-.93l.11-1.52c.04-.55-.37-1.03-.92-1.07-.56-.04-1.03.37-1.07.92l-.11,1.52c-.04.55.37,1.03.92,1.07Z"/>
    <path class="cls-2" d="m3.6,9.75l-1.52-.11c-.54-.03-1.03.37-1.07.92s.37,1.03.92,1.07l1.52.11s.05,0,.07,0c.52,0,.96-.4,1-.93.04-.55-.37-1.03-.92-1.07Z"/>
    <path class="cls-2" d="m25.71,24.27c.38-.4.36-1.04-.05-1.41-.4-.38-1.04-.36-1.41.05-.14.15-.27.29-.43.44-.41.37-.45,1-.08,1.41.2.22.47.34.75.34.24,0,.47-.08.66-.25.21-.18.39-.37.57-.56Z"/>
  </g>
</svg>