<?xml version="1.0" encoding="UTF-8"?>
<svg id="OBJECT" xmlns="http://www.w3.org/2000/svg" viewBox="0 0 32 32">
  <defs>
    <style>
      .cls-1 {
        fill: #7738c8;
      }

      .cls-1, .cls-2 {
        stroke-width: 0px;
      }

      .cls-2 {
        fill: #011839;
      }
    </style>
  </defs>
  <path class="cls-1" d="m30,27H2c-.55,0-1,.45-1,1s.45,1,1,1h1.55l.74,1.11c.37.56,1,.89,1.66.89h20.1c.67,0,1.29-.33,1.66-.89l.74-1.11h1.55c.55,0,1-.45,1-1s-.45-1-1-1Z"/>
  <g>
    <path class="cls-2" d="m19.43,15.42v-1.13c0-1.38-1.12-2.5-2.5-2.5h-1.85c-1.38,0-2.5,1.12-2.5,2.5v1.13c-4.52.41-8.07,4.21-8.07,8.83v.75c0,.55.45,1,1,1s1-.45,1-1v-.75c0-3.79,3.08-6.88,6.88-6.88h5.25c3.79,0,6.88,3.08,6.88,6.88v.75c0,.55.45,1,1,1s1-.45,1-1v-.75c0-4.62-3.55-8.43-8.07-8.83Zm-4.35-1.63h1.85c.28,0,.5.22.5.5v1.09h-2.85v-1.09c0-.28.22-.5.5-.5Z"/>
    <path class="cls-2" d="m23.02,21.17c-.32-.45-.94-.56-1.39-.24-.45.32-.56.94-.24,1.39.13.18.24.37.34.59.17.37.53.58.91.58.14,0,.28-.03.42-.09.5-.23.72-.83.49-1.33-.15-.33-.32-.63-.52-.91Z"/>
    <path class="cls-2" d="m20.14,19.11c-.48-.15-1-.22-1.52-.22h-3.24c-.55,0-1,.45-1,1s.45,1,1,1h3.24c.33,0,.64.05.94.14.1.03.2.04.29.04.43,0,.82-.28.96-.71.16-.53-.13-1.09-.66-1.25Z"/>
    <path class="cls-2" d="m7.29,10c.22,0,.45-.07.63-.23l1.03-.84c.62-.51.98-1.25.98-2.03s-.36-1.52-.98-2.03c-.16-.13-.24-.3-.24-.48s.09-.35.24-.48l1.39-1.14c.43-.35.49-.98.14-1.41-.35-.43-.98-.49-1.41-.14l-1.39,1.14c-.62.51-.98,1.25-.98,2.03s.36,1.52.98,2.03c.16.13.24.3.24.48s-.09.35-.24.48l-1.03.84c-.43.35-.49.98-.14,1.41.2.24.49.37.78.37Z"/>
    <path class="cls-2" d="m14.79,10c.22,0,.45-.07.63-.23l1.03-.84c.62-.51.98-1.25.98-2.03s-.36-1.52-.98-2.03c-.16-.13-.24-.3-.24-.48s.09-.35.24-.48l1.39-1.14c.43-.35.49-.98.14-1.41-.35-.43-.98-.49-1.41-.14l-1.39,1.14c-.62.51-.98,1.25-.98,2.03s.36,1.52.98,2.03c.16.13.24.3.24.48s-.09.35-.24.48l-1.03.84c-.43.35-.49.98-.14,1.41.2.24.49.37.78.37Z"/>
    <path class="cls-2" d="m22.29,10c.22,0,.45-.07.63-.23l1.03-.84c.62-.51.98-1.25.98-2.03s-.36-1.52-.98-2.03c-.16-.13-.24-.3-.24-.48s.09-.35.24-.48l1.39-1.14c.43-.35.49-.98.14-1.41-.35-.43-.98-.49-1.41-.14l-1.39,1.14c-.62.51-.98,1.25-.98,2.03s.36,1.52.98,2.03c.16.13.24.3.24.48s-.09.35-.24.48l-1.03.84c-.43.35-.49.98-.14,1.41.2.24.49.37.78.37Z"/>
  </g>
</svg>