<?xml version="1.0" encoding="UTF-8"?>
<svg id="OBJECT" xmlns="http://www.w3.org/2000/svg" viewBox="0 0 32 32">
  <defs>
    <style>
      .cls-1 {
        fill: #7738c8;
      }

      .cls-1, .cls-2 {
        stroke-width: 0px;
      }

      .cls-2 {
        fill: #011839;
      }
    </style>
  </defs>
  <g>
    <path class="cls-1" d="m3.52,11.03c.18-.02.37-.03.55-.03.66,0,1.31.11,1.95.28v-3.38h-2.5v3.13Z"/>
    <path class="cls-1" d="m8,12.09c.28.16.56.33.82.53l1.15.9c.17.13.35.23.53.34V3.14h-2.5v8.95Z"/>
    <path class="cls-1" d="m12.5,14.74c.59.16,1.2.26,1.82.26h.68V5.57h-2.5v9.17Z"/>
    <path class="cls-1" d="m17,15h.67c.62,0,1.24-.1,1.83-.26V1h-2.5v14Z"/>
    <path class="cls-1" d="m21.48,13.87c.18-.12.37-.22.54-.35l1.16-.9c.25-.2.53-.36.8-.52V3.54h-2.5v10.33Z"/>
    <path class="cls-1" d="m25.98,7.26v4.02c.64-.17,1.29-.28,1.95-.28.19,0,.37.01.55.03v-3.77h-2.5Z"/>
  </g>
  <path class="cls-2" d="m30.31,14.11c-.58-.71-1.45-1.11-2.38-1.11-1.28,0-2.53.43-3.53,1.2l-1.16.9c-1.58,1.22-3.56,1.9-5.58,1.9h-3.34c-2.02,0-4-.67-5.58-1.9l-1.16-.9c-1-.78-2.25-1.2-3.53-1.2-.93,0-1.8.41-2.38,1.11-.57.69-.8,1.58-.63,2.45l2.3,12.08c.3,1.37,1.56,2.37,2.99,2.37h19.33c1.43,0,2.69-.99,3-2.39l2.29-12.05c.17-.87-.07-1.76-.63-2.45ZM4.31,23h23.38l-.38,2H4.69l-.38-2Zm21.35,6H6.34c-.5,0-.93-.33-1.03-.77l-.23-1.23h21.86l-.23,1.2c-.1.46-.54.8-1.04.8Zm3.32-12.81l-.91,4.81H3.93l-.91-4.81c-.07-.39.1-.67.21-.8.2-.25.51-.39.84-.39.83,0,1.65.28,2.3.78l1.16.9c1.93,1.5,4.34,2.32,6.81,2.32h3.34c2.46,0,4.88-.82,6.81-2.32l1.16-.9c.65-.5,1.46-.78,2.3-.78.33,0,.64.14.84.39.11.13.28.41.21.8Z"/>
</svg>