<?xml version="1.0" encoding="UTF-8"?>
<svg id="OBJECT" xmlns="http://www.w3.org/2000/svg" viewBox="0 0 32 32">
  <defs>
    <style>
      .cls-1 {
        fill: #7738c8;
      }

      .cls-1, .cls-2 {
        stroke-width: 0px;
      }

      .cls-2 {
        fill: #011839;
      }
    </style>
  </defs>
  <path class="cls-1" d="m16.61,10.5c-3.86,0-7,3.14-7,7s3.14,7,7,7,7-3.14,7-7-3.14-7-7-7Zm3.5,7c-.55,0-1-.45-1-1,0-.83-.67-1.5-1.5-1.5-.55,0-1-.45-1-1s.45-1,1-1c1.93,0,3.5,1.57,3.5,3.5,0,.55-.45,1-1,1Z"/>
  <g>
    <path class="cls-2" d="m30.97,10.11c-.41-5.4-5.03-9.48-10.28-9.08-3.06.23-5.82,1.98-7.41,4.64-1.13-.49-2.36-.7-3.59-.6-2.08.16-3.97,1.14-5.32,2.76-1.34,1.61-2,3.67-1.83,5.79.04.57.15,1.15.31,1.7-1.36,1.89-2.01,4.21-1.83,6.57.39,5.16,4.61,9.1,9.57,9.1.23,0,.47,0,.71-.03,1.2-.09,2.35-.41,3.43-.94,6.25.89,10.75-.09,13.37-2.91,3.1-3.34,2.85-8.42,2.04-12.22.66-1.51.95-3.16.82-4.8Zm-2.85,4.91c.76,3.36,1.12,7.96-1.48,10.75-2.19,2.35-6.2,3.11-11.93,2.25-.21-.03-.43,0-.62.11-.91.49-1.9.78-2.93.86-4.16.32-7.8-2.93-8.13-7.24-.16-2.04.46-4.04,1.73-5.61.22-.27.28-.65.16-.98-.2-.55-.33-1.12-.37-1.69-.12-1.6.37-3.15,1.38-4.36,1-1.2,2.4-1.93,3.93-2.05.14-.01.28-.02.43-.02,1.02,0,2.02.28,2.92.82.24.15.54.18.81.1.27-.08.5-.28.62-.54,1.16-2.51,3.55-4.2,6.23-4.4,4.16-.31,7.81,2.93,8.13,7.24h0c.11,1.41-.16,2.83-.78,4.1-.1.2-.13.44-.08.66Z"/>
    <path class="cls-2" d="m6.63,22.17c-.06-.25-.1-.46-.11-.68-.04-.55-.52-.98-1.06-.93-.55.04-.97.51-.93,1.06.02.34.08.68.17,1.04.11.45.52.76.97.76.08,0,.16,0,.24-.03.54-.13.86-.68.73-1.21Z"/>
    <path class="cls-2" d="m10.9,25.49c-.09,0-.17,0-.25,0-1.01.02-2.01-.39-2.77-1.13-.4-.38-1.03-.37-1.41.02-.38.4-.37,1.03.02,1.41,1.13,1.09,2.59,1.69,4.12,1.69.14,0,.29,0,.44-.01.55-.04.96-.52.92-1.07-.04-.55-.52-.97-1.07-.92Z"/>
    <path class="cls-2" d="m20.96,4.52c-.55.04-.96.52-.92,1.08.04.55.5.95,1.08.92,2.25-.18,4.2,1.65,4.38,4.01.04.52.48.92,1,.92.03,0,.05,0,.08,0,.55-.04.96-.52.92-1.07-.26-3.45-3.17-6.12-6.53-5.85Z"/>
  </g>
</svg>