<?xml version="1.0" encoding="UTF-8"?>
<svg id="OBJECT" xmlns="http://www.w3.org/2000/svg" viewBox="0 0 32 32">
  <defs>
    <style>
      .cls-1 {
        fill: #7738c8;
      }

      .cls-1, .cls-2 {
        stroke-width: 0px;
      }

      .cls-2 {
        fill: #011839;
      }
    </style>
  </defs>
  <path class="cls-1" d="m17.37,6.72c-2.94-2.94-7.71-2.93-10.65,0-2.93,2.93-2.93,7.71,0,10.65,1.47,1.47,3.4,2.2,5.32,2.2s3.86-.73,5.32-2.2c2.93-2.93,2.93-7.71,0-10.65Z"/>
  <g>
    <path class="cls-2" d="m26.64,7.81c.12.45.52.74.96.74.09,0,.17-.01.26-.03l2.4-.64c.53-.14.85-.69.71-1.22-.14-.53-.7-.85-1.22-.71l-2.4.64c-.53.14-.85.69-.71,1.22Z"/>
    <path class="cls-2" d="m24.5,4.04c.16.09.33.13.5.13.34,0,.68-.18.87-.5l.68-1.17c.28-.48.11-1.09-.36-1.37-.48-.28-1.09-.11-1.37.36l-.68,1.17c-.28.48-.11,1.09.36,1.37Z"/>
    <path class="cls-2" d="m28.03,11.79c-.48-.28-1.09-.11-1.37.36-.28.48-.11,1.09.36,1.37l1.17.68c.16.09.33.13.5.13.34,0,.68-.18.87-.5.28-.48.11-1.09-.36-1.37l-1.17-.68Z"/>
    <path class="cls-2" d="m7.78,26.67c-.53-.16-1.09.14-1.25.67l-.72,2.37c-.16.53.14,1.09.67,1.25.1.03.19.04.29.04.43,0,.83-.28.96-.71l.72-2.37c.16-.53-.14-1.09-.67-1.25Z"/>
    <path class="cls-2" d="m13.47,27.25c-.26-.49-.87-.67-1.35-.41-.49.26-.67.87-.41,1.35l.64,1.19c.18.34.53.53.88.53.16,0,.32-.04.47-.12.49-.26.67-.87.41-1.35l-.64-1.19Z"/>
    <path class="cls-2" d="m2.72,23.99l-1.19.64c-.49.26-.67.87-.41,1.35.18.34.53.53.88.53.16,0,.32-.04.47-.12l1.19-.64c.49-.26.67-.87.41-1.35-.26-.49-.87-.67-1.35-.41Z"/>
    <path class="cls-2" d="m29.45,22.88l-5.5-4.6c-.4-.33-.98-.31-1.35.06l-.18.18-.87-.87c2.55-4.31,1.89-9.82-1.7-13.41C15.55-.07,8.54-.07,4.23,4.23-.07,8.54-.07,15.55,4.23,19.85c2.14,2.14,4.96,3.24,7.8,3.24,1.93,0,3.87-.51,5.61-1.54l.87.87-.18.18c-.37.37-.39.95-.06,1.35l4.59,5.49c.75.92,1.86,1.49,3.05,1.55.07,0,.14,0,.22,0,1.11,0,2.19-.44,2.98-1.23l.64-.64c.84-.84,1.29-2.01,1.23-3.2s-.63-2.3-1.54-3.04Zm-10.96-3.32c-.34-.34-.88-.39-1.28-.11-3.6,2.52-8.46,2.09-11.56-1.01-3.53-3.53-3.53-9.26,0-12.79,3.53-3.52,9.26-3.53,12.79,0,3.1,3.1,3.53,7.97,1.01,11.56-.28.4-.23.94.11,1.28l1.44,1.44-1.07,1.07-1.44-1.44Zm9.86,8.15l-.64.64c-.45.45-1.03.68-1.68.65-.63-.03-1.2-.32-1.61-.83l-4.02-4.8,2.97-2.97,4.81,4.02c.49.4.78.97.82,1.6.03.63-.2,1.23-.65,1.68Z"/>
    <path class="cls-2" d="m26.6,25.19c-.39-.39-1.02-.39-1.41,0-.39.39-.39,1.02,0,1.41l.71.71c.2.2.45.29.71.29s.51-.1.71-.29c.39-.39.39-1.02,0-1.41l-.71-.71Z"/>
  </g>
</svg>