<?xml version="1.0" encoding="UTF-8"?>
<svg id="OBJECT" xmlns="http://www.w3.org/2000/svg" viewBox="0 0 32 32">
  <defs>
    <style>
      .cls-1 {
        fill: #7738c8;
      }

      .cls-1, .cls-2 {
        stroke-width: 0px;
      }

      .cls-2 {
        fill: #011839;
      }
    </style>
  </defs>
  <g>
    <rect class="cls-1" x="17" y="4.5" width="4.25" height="11"/>
    <rect class="cls-1" x="10.75" y="4.5" width="4.25" height="11"/>
    <path class="cls-1" d="m26.5,4.5h-3.25v11h3.25c.55,0,1-.45,1-1V5.5c0-.55-.45-1-1-1Z"/>
    <path class="cls-1" d="m4.5,5.5v9c0,.55.45,1,1,1h3.25V4.5h-3.25c-.55,0-1,.45-1,1Z"/>
  </g>
  <path class="cls-2" d="m28,1H4c-1.65,0-3,1.35-3,3v12c0,1.65,1.35,3,3,3h11v2h-3c-.55,0-1,.45-1,1s.45,1,1,1h.5v5c0,1.65,1.35,3,3,3h1c1.65,0,3-1.35,3-3v-5h.5c.55,0,1-.45,1-1s-.45-1-1-1h-3v-2h11c1.65,0,3-1.35,3-3V4c0-1.65-1.35-3-3-3Zm-10.5,27c0,.55-.45,1-1,1h-1c-.55,0-1-.45-1-1v-5h3v5Zm11.5-12c0,.55-.45,1-1,1H4c-.55,0-1-.45-1-1V4c0-.55.45-1,1-1h24c.55,0,1,.45,1,1v12Z"/>
</svg>