<?xml version="1.0" encoding="UTF-8"?>
<svg id="OBJECT" xmlns="http://www.w3.org/2000/svg" viewBox="0 0 32 32">
  <defs>
    <style>
      .cls-1 {
        fill: #7738c8;
      }

      .cls-1, .cls-2 {
        stroke-width: 0px;
      }

      .cls-2 {
        fill: #011839;
      }
    </style>
  </defs>
  <g>
    <path class="cls-1" d="m30.57,2.75c-.39-.6-.99-1.02-1.69-1.17l-2.4-.52c-1.44-.31-2.88.61-3.19,2.05l-.15.7c-.09.4-.01.82.21,1.17.22.35.57.59.98.68.04,0,.07.05.06.1l-.49,2.24h4.67l.28-1.28s.05-.07.1-.06c.4.09.82.01,1.17-.21.35-.22.59-.57.68-.97l.15-.7c.15-.7.02-1.42-.37-2.02Z"/>
    <path class="cls-1" d="m14.18,3.27c-.27.09-.49.3-.6.57-.07.16-.73,1.84-1.35,4.16h9.14c-2.99-2.72-6.15-4.53-6.37-4.66-.25-.14-.55-.17-.82-.07Z"/>
    <path class="cls-1" d="m4.06,8h6.1l.14-.51c.18-.67.36-1.27.53-1.82-.64-.28-1.35-.44-2.1-.44-2.01,0-3.75,1.13-4.66,2.77Z"/>
  </g>
  <g>
    <path class="cls-2" d="m28.5,10H3.5c-1.38,0-2.5,1.12-2.5,2.5v4.5c0,3.94,2.29,7.34,5.61,8.97l-.52,1.84c-.22.76-.08,1.56.4,2.19.48.64,1.21,1,2,1h15.02c.8,0,1.53-.36,2-1,.47-.63.62-1.43.4-2.18l-.52-1.85c3.32-1.63,5.61-5.03,5.61-8.97v-4.5c0-1.38-1.12-2.5-2.5-2.5ZM3.5,12h25c.28,0,.5.22.5.5v1.5H3v-1.5c0-.28.22-.5.5-.5Zm20.49,16.37c.06.21-.02.36-.08.43-.06.07-.18.2-.4.2h-15.02c-.22,0-.35-.12-.4-.2-.05-.07-.14-.23-.08-.44l.48-1.69c.8.21,1.64.33,2.51.33h10c.87,0,1.7-.12,2.51-.33l.48,1.7Zm-2.99-3.37h-10c-4.41,0-8-3.59-8-8v-1h26v1c0,4.41-3.59,8-8,8Z"/>
    <path class="cls-2" d="m26.5,17h-1c-.55,0-1,.45-1,1s.45,1,1,1h1c.55,0,1-.45,1-1s-.45-1-1-1Z"/>
    <path class="cls-2" d="m22.5,17h-1c-.55,0-1,.45-1,1s.45,1,1,1h1c.55,0,1-.45,1-1s-.45-1-1-1Z"/>
  </g>
</svg>