<?xml version="1.0" encoding="UTF-8"?>
<svg id="OBJECT" xmlns="http://www.w3.org/2000/svg" viewBox="0 0 32 32">
  <defs>
    <style>
      .cls-1 {
        fill: #7738c8;
      }

      .cls-1, .cls-2 {
        stroke-width: 0px;
      }

      .cls-2 {
        fill: #011839;
      }
    </style>
  </defs>
  <path class="cls-1" d="m30,27H2c-.55,0-1,.45-1,1s.45,1,1,1h1.55l.74,1.11c.37.56,1,.89,1.66.89h20.1c.67,0,1.29-.33,1.66-.89l.74-1.11h1.55c.55,0,1-.45,1-1s-.45-1-1-1Z"/>
  <g>
    <path class="cls-2" d="m4.07,7.81c.45,0,.85-.3.97-.75.14-.54-.18-1.08-.72-1.22l-2.07-.53c-.53-.14-1.08.18-1.22.72s.18,1.08.72,1.22l2.07.53c.08.02.17.03.25.03Z"/>
    <path class="cls-2" d="m5.43,3.52c.19.32.52.49.86.49.17,0,.35-.04.51-.14.48-.28.63-.89.35-1.37l-.59-1.01c-.28-.48-.89-.63-1.37-.35-.48.28-.63.89-.35,1.37l.59,1.01Z"/>
    <path class="cls-2" d="m5.04,10.7c-.28-.48-.89-.63-1.37-.35l-1.01.59c-.48.28-.63.89-.35,1.37.19.32.52.49.86.49.17,0,.35-.04.51-.14l1.01-.59c.48-.28.63-.89.35-1.37Z"/>
    <path class="cls-2" d="m27.57,8.24c0-1.52-1.23-2.75-2.75-2.75h-5.28l.74-1.86c.15-.38.52-.63.93-.63h2.48c.55,0,1-.45,1-1s-.45-1-1-1h-2.48c-1.24,0-2.33.74-2.79,1.89l-1.03,2.6h-6.07c-1.52,0-2.75,1.23-2.75,2.75,0,1.27.88,2.34,2.05,2.65l.13,2.1h-.33c-2.21,0-4,1.79-4,4v1.12c-1.15.33-2,1.38-2,2.63s.85,2.3,2,2.63v1.62c0,.55.45,1,1,1s1-.45,1-1v-1.5h9v1.5c0,.55.45,1,1,1s1-.45,1-1v-1.62c1.15-.33,2-1.38,2-2.63s-.85-2.3-2-2.63v-1.12c0-2.21-1.79-4-4-4h-2.67l-.13-2h10.87l-.93,13.93c-.04.55.38,1.03.93,1.06.02,0,.04,0,.07,0,.52,0,.96-.41,1-.93l.94-14.17c1.18-.31,2.06-1.37,2.06-2.65Zm-8.89,13.25H7.18c-.41,0-.75-.34-.75-.75s.34-.75.75-.75h11.5c.41,0,.75.34.75.75s-.34.75-.75.75Zm-1.25-4.5v1h-9v-1c0-1.1.9-2,2-2h5c1.1,0,2,.9,2,2Zm7.39-8h-13.5c-.41,0-.75-.34-.75-.75s.34-.75.75-.75h13.5c.41,0,.75.34.75.75s-.34.75-.75.75Z"/>
    <path class="cls-2" d="m21.57,11.99h-1c-.55,0-1,.45-1,1s.45,1,1,1h1c.55,0,1-.45,1-1s-.45-1-1-1Z"/>
  </g>
</svg>