<?xml version="1.0" encoding="UTF-8"?>
<svg id="OBJECT" xmlns="http://www.w3.org/2000/svg" viewBox="0 0 32 32">
  <defs>
    <style>
      .cls-1 {
        fill: #7738c8;
      }

      .cls-1, .cls-2 {
        stroke-width: 0px;
      }

      .cls-2 {
        fill: #011839;
      }
    </style>
  </defs>
  <path class="cls-1" d="m30.49,3.82c.47-.66.4-1.56-.18-2.13-.57-.57-1.48-.65-2.14-.18l-4.03,2.89,3.46,3.46,2.88-4.04Z"/>
  <g>
    <path class="cls-2" d="m5.4,6.16c.2.23.48.35.76.35.23,0,.46-.08.65-.24.42-.36.46-.99.1-1.41l-1.62-1.88c-.36-.42-.99-.46-1.41-.1-.42.36-.46.99-.1,1.41l1.62,1.88Z"/>
    <path class="cls-2" d="m10.7,4.35s.05,0,.07,0c.52,0,.96-.4,1-.93l.1-1.35c.04-.55-.37-1.03-.92-1.07-.57-.04-1.03.37-1.07.92l-.1,1.35c-.04.55.37,1.03.92,1.07Z"/>
    <path class="cls-2" d="m1.93,10.67l1.35.1s.05,0,.07,0c.52,0,.96-.4,1-.93.04-.55-.37-1.03-.92-1.07l-1.35-.1c-.54-.04-1.03.37-1.07.93s.37,1.03.92,1.07Z"/>
    <path class="cls-2" d="m26.6,25.84c-.36-.42-.99-.46-1.41-.1-.42.36-.46.99-.1,1.41l1.62,1.88c.2.23.48.35.76.35.23,0,.46-.08.65-.24.42-.36.46-.99.1-1.41l-1.62-1.88Z"/>
    <path class="cls-2" d="m21.3,27.65c-.56-.04-1.03.37-1.07.92l-.1,1.35c-.04.55.37,1.03.92,1.07.03,0,.05,0,.07,0,.52,0,.96-.4,1-.93l.1-1.35c.04-.55-.37-1.03-.92-1.07Z"/>
    <path class="cls-2" d="m30.07,21.33l-1.35-.1c-.57-.05-1.03.37-1.07.92-.04.55.37,1.03.92,1.07l1.35.1s.05,0,.07,0c.52,0,.96-.4,1-.93.04-.55-.37-1.03-.92-1.07Z"/>
    <path class="cls-2" d="m25.67,15.19l.44-.44c1.21-1.21,1.21-3.18,0-4.39l-4.47-4.47c-1.17-1.17-3.22-1.17-4.39,0l-.45.45c-.99-.66-2.42-.56-3.28.3L1.76,18.41c-.49.49-.76,1.13-.76,1.82s.27,1.34.76,1.82l8.19,8.19c.49.49,1.13.76,1.82.76s1.34-.27,1.82-.76l11.77-11.77c.89-.89.99-2.28.3-3.28Zm-5.44-7.89l4.47,4.47c.43.43.43,1.13,0,1.56l-.41.41-6.03-6.03.41-.41c.42-.42,1.15-.42,1.56,0Zm-8.04,3.5l9.01,9.01-6.26,6.26-9.01-9.01,6.26-6.26Zm-.83,18.03L3.17,20.64c-.11-.11-.17-.25-.17-.41s.06-.3.17-.41l1.34-1.34,9.01,9.01-1.34,1.34c-.22.22-.6.22-.82,0Zm12.59-11.77l-1.34,1.34-9.01-9.01,1.34-1.34c.11-.11.25-.17.41-.17s.3.06.41.17l8.19,8.19c.23.23.23.59,0,.82Z"/>
    <path class="cls-2" d="m8.05,17.77l.74.74c.2.2.45.29.71.29s.51-.1.71-.29c.39-.39.39-1.02,0-1.41l-.74-.74c-.39-.39-1.02-.39-1.41,0s-.39,1.02,0,1.41Z"/>
  </g>
</svg>