<?xml version="1.0" encoding="UTF-8"?>
<svg id="OBJECT" xmlns="http://www.w3.org/2000/svg" viewBox="0 0 32 32">
  <defs>
    <style>
      .cls-1 {
        fill: #7738c8;
      }

      .cls-1, .cls-2 {
        stroke-width: 0px;
      }

      .cls-2 {
        fill: #011839;
      }
    </style>
  </defs>
  <path class="cls-1" d="m28.55,20.93l-5.21-3.96-4.12,5.53,4.44,3.38c.28.21.44.54.45.89v1.01c.02.96.48,1.88,1.24,2.46.55.42,1.21.64,1.89.64.14,0,.28,0,.43-.03.83-.11,1.56-.54,2.07-1.21,2.08-2.73,1.55-6.64-1.18-8.71Z"/>
  <g>
    <path class="cls-2" d="m6.7,25.46l-1.84,2.46c-.33.44-.24,1.07.2,1.4.18.13.39.2.6.2.3,0,.6-.14.8-.4l1.84-2.46c.33-.44.24-1.07-.2-1.4-.44-.33-1.07-.24-1.4.2Z"/>
    <path class="cls-2" d="m13.25,27.35c-.55.08-.93.58-.85,1.13l.24,1.66c.07.5.5.86.99.86.05,0,.09,0,.14-.01.55-.08.93-.58.85-1.13l-.24-1.66c-.08-.55-.58-.93-1.13-.85Z"/>
    <path class="cls-2" d="m3.52,20.05l-1.66.24c-.55.08-.93.58-.85,1.13.07.5.5.86.99.86.05,0,.09,0,.14-.01l1.66-.24c.55-.08.93-.58.85-1.13-.08-.55-.59-.93-1.13-.85Z"/>
    <path class="cls-2" d="m25.55,2.88l-1.84,2.46c-.33.44-.24,1.07.2,1.4.18.13.39.2.6.2.3,0,.6-.14.8-.4l1.84-2.46c.33-.44.24-1.07-.2-1.4-.44-.33-1.07-.24-1.4.2Z"/>
    <path class="cls-2" d="m18.61,4.66s.09,0,.14-.01c.55-.08.93-.58.85-1.13l-.24-1.66c-.08-.55-.59-.93-1.13-.85-.55.08-.93.58-.85,1.13l.24,1.66c.07.5.5.86.99.86Z"/>
    <path class="cls-2" d="m29.86,9.73l-1.66.24c-.55.08-.93.58-.85,1.13.07.5.5.86.99.86.05,0,.09,0,.14-.01l1.66-.24c.55-.08.93-.58.85-1.13-.08-.55-.59-.93-1.13-.85Z"/>
    <path class="cls-2" d="m2.8,1.33c-.28-.21-.65-.26-.98-.13-.33.13-.56.43-.61.78-1.01,6.6,1.67,13.22,6.98,17.26l6.16,4.69c.17.13.39.2.61.2.04,0,.09,0,.13,0,.26-.04.5-.17.66-.39l5.44-7.15c.16-.21.23-.48.2-.74-.04-.26-.17-.5-.39-.66L2.8,1.33Zm11.96,20.4l-5.37-4.09C5.14,14.4,2.78,9.29,3.02,4.01l15.98,12.17-4.23,5.56Z"/>
    <path class="cls-2" d="m15.27,17.49c.18.14.39.2.6.2.3,0,.6-.14.8-.39.33-.44.25-1.07-.19-1.4l-.88-.67c-.44-.34-1.07-.25-1.4.19-.33.44-.25,1.07.19,1.4l.88.67Z"/>
  </g>
</svg>