<?xml version="1.0" encoding="UTF-8"?>
<svg id="OBJECT" xmlns="http://www.w3.org/2000/svg" viewBox="0 0 32 32">
  <defs>
    <style>
      .cls-1 {
        fill: #7738c8;
      }

      .cls-1, .cls-2 {
        stroke-width: 0px;
      }

      .cls-2 {
        fill: #011839;
      }
    </style>
  </defs>
  <g>
    <path class="cls-1" d="m21.55,14.93h-7c-.55,0-1,.45-1,1s.45,1,1,1h7c.55,0,1-.45,1-1s-.45-1-1-1Z"/>
    <path class="cls-1" d="m25.55,14.93h-1c-.55,0-1,.45-1,1s.45,1,1,1h1c.55,0,1-.45,1-1s-.45-1-1-1Z"/>
    <path class="cls-1" d="m14.55,12.93h11c.55,0,1-.45,1-1s-.45-1-1-1h-.51c-.26-2.17-1.87-3.93-3.99-4.36v-.22c0-.55-.45-1-1-1s-1,.45-1,1v.22c-2.12.43-3.73,2.19-3.99,4.36h-.51c-.55,0-1,.45-1,1s.45,1,1,1Z"/>
  </g>
  <g>
    <path class="cls-2" d="m28.5,1H6c-1.38,0-2.5,1.12-2.5,2.5v1h-1.5c-.55,0-1,.45-1,1s.45,1,1,1h1.5v3.25h-1.5c-.55,0-1,.45-1,1s.45,1,1,1h1.5v3.25h-1.5c-.55,0-1,.45-1,1s.45,1,1,1h1.5v3.25h-1.5c-.55,0-1,.45-1,1s.45,1,1,1h1.5v3.25h-1.5c-.55,0-1,.45-1,1s.45,1,1,1h1.5v1c0,1.38,1.12,2.5,2.5,2.5h22.5c1.38,0,2.5-1.12,2.5-2.5V3.5c0-1.38-1.12-2.5-2.5-2.5ZM5.5,28.5v-1h1.5c.55,0,1-.45,1-1s-.45-1-1-1h-1.5v-3.25h1.5c.55,0,1-.45,1-1s-.45-1-1-1h-1.5v-3.25h1.5c.55,0,1-.45,1-1s-.45-1-1-1h-1.5v-3.25h1.5c.55,0,1-.45,1-1s-.45-1-1-1h-1.5v-3.25h1.5c.55,0,1-.45,1-1s-.45-1-1-1h-1.5v-1c0-.28.22-.5.5-.5h3.1v26h-3.1c-.28,0-.5-.22-.5-.5Zm23.5,0c0,.28-.22.5-.5.5H11.1V3h17.4c.28,0,.5.22.5.5v25Z"/>
    <path class="cls-2" d="m25.55,20.64h-11c-.55,0-1,.45-1,1v4c0,.55.45,1,1,1h11c.55,0,1-.45,1-1v-4c0-.55-.45-1-1-1Zm-1,4h-9v-2h9v2Z"/>
  </g>
</svg>