<?xml version="1.0" encoding="UTF-8"?>
<svg id="OBJECT" xmlns="http://www.w3.org/2000/svg" viewBox="0 0 32 32">
  <defs>
    <style>
      .cls-1 {
        fill: #7738c8;
      }

      .cls-1, .cls-2 {
        stroke-width: 0px;
      }

      .cls-2 {
        fill: #011839;
      }
    </style>
  </defs>
  <path class="cls-1" d="m12,3h.83l.39,1h11.56l.39-1h.83c.55,0,1-.45,1-1s-.45-1-1-1h-14c-.55,0-1,.45-1,1s.45,1,1,1Z"/>
  <g>
    <path class="cls-2" d="m27,24.11v-.72l2.76.69c.08.02.16.03.24.03.22,0,.44-.07.62-.21.24-.19.38-.48.38-.79v-10c0-.31-.14-.6-.38-.79-.24-.19-.56-.26-.86-.18l-2.76.69v-.72c0-1.65-1.35-3-3-3h-1v-3.11c0-.55-.45-1-1-1s-1,.45-1,1v3.11h-4v-3.11c0-.55-.45-1-1-1s-1,.45-1,1v3.11h-1c-1.65,0-3,1.35-3,3v1.47l-2.79.79c-.43.12-.73.52-.73.96v1.77h-1.48v-8.33c0-.55-.45-1-1-1h-3c-.55,0-1,.45-1,1s.45,1,1,1h2v8.33c0,.55.45,1,1,1h2.48v1.77c0,.45.3.84.73.96l2.79.79v1.47c0,1.48,1.08,2.71,2.5,2.95v1.94h-5.5c-.55,0-1,.45-1,1s.45,1,1,1h22c.55,0,1-.45,1-1s-.45-1-1-1h-5.5v-1.94c1.42-.24,2.5-1.47,2.5-2.95Zm2-9.72v7.44l-2-.5v-6.44l2-.5Zm-19.52,5.73v-4.03l1.52-.43v4.89l-1.52-.43Zm3.52,3.98v-12c0-.55.45-1,1-1h10c.55,0,1,.45,1,1v12c0,.55-.45,1-1,1h-10c-.55,0-1-.45-1-1Zm2.5,4.89v-1.89h7v1.89h-7Z"/>
    <path class="cls-2" d="m15.5,23.11h7c.55,0,1-.45,1-1s-.45-1-1-1h-7c-.55,0-1,.45-1,1s.45,1,1,1Z"/>
    <path class="cls-2" d="m15.5,20.11h7c.55,0,1-.45,1-1s-.45-1-1-1h-7c-.55,0-1,.45-1,1s.45,1,1,1Z"/>
    <path class="cls-2" d="m21.5,14.45h1c.55,0,1-.45,1-1s-.45-1-1-1h-1c-.55,0-1,.45-1,1s.45,1,1,1Z"/>
    <path class="cls-2" d="m15.5,14.45h1c.55,0,1-.45,1-1s-.45-1-1-1h-1c-.55,0-1,.45-1,1s.45,1,1,1Z"/>
  </g>
</svg>