<?xml version="1.0" encoding="UTF-8"?>
<svg id="OBJECT" xmlns="http://www.w3.org/2000/svg" viewBox="0 0 32 32">
  <defs>
    <style>
      .cls-1 {
        fill: #7738c8;
      }

      .cls-1, .cls-2 {
        stroke-width: 0px;
      }

      .cls-2 {
        fill: #011839;
      }
    </style>
  </defs>
  <path class="cls-1" d="m1,30v1h30v-3H3c-1.1,0-2,.9-2,2Z"/>
  <g>
    <path class="cls-2" d="m28,1H4.5c-1.93,0-3.5,1.57-3.5,3.5s1.57,3.5,3.5,3.5h.75l.79,2.77c.12.43.52.73.96.73h1.38v1.5h-3.61c-.55,0-1,.45-1,1v5c0,1.86,1.28,3.41,3,3.86v3.14c0,.55.45,1,1,1s1-.45,1-1v-3h7v3c0,.55.45,1,1,1s1-.45,1-1v-3.14c1.72-.45,3-2,3-3.86v-5c0-.55-.45-1-1-1h-3.15v-1.5h1.38c.45,0,.84-.3.96-.73l.79-2.77h3.32c.32,4.86.21,15.21-3.46,17.11-.49.25-.68.86-.43,1.35.18.34.53.54.89.54.15,0,.31-.04.46-.11,5.15-2.66,4.8-14.92,4.55-18.89h3.92v18c0,.55.45,1,1,1s1-.45,1-1V4c0-1.65-1.35-3-3-3ZM3,4.5c0-.83.67-1.5,1.5-1.5h23.5c.55,0,1,.45,1,1v2H4.5c-.83,0-1.5-.67-1.5-1.5Zm13.77,16.5H7.77c-1.1,0-2-.9-2-2v-.74h13v.74c0,1.1-.9,2-2,2Zm2-4.74H5.77v-1.26h13v1.26Zm-4.15-3.26h-4.24v-1.5h4.24v1.5Zm2.62-3.5H7.75l-.43-1.5h10.35l-.43,1.5Z"/>
    <path class="cls-2" d="m26.54,22h-1c-.55,0-1,.45-1,1s.45,1,1,1h1c.55,0,1-.45,1-1s-.45-1-1-1Z"/>
  </g>
</svg>