<?xml version="1.0" encoding="UTF-8"?>
<svg id="OBJECT" xmlns="http://www.w3.org/2000/svg" viewBox="0 0 32 32">
  <defs>
    <style>
      .cls-1 {
        fill: #7738c8;
      }

      .cls-1, .cls-2 {
        stroke-width: 0px;
      }

      .cls-2 {
        fill: #011839;
      }
    </style>
  </defs>
  <path class="cls-1" d="m20.27,13.79l-2.07-2.07c-.21-.21-.49-.32-.79-.29l-3.18.28c-.2.02-.38.09-.54.21l-4.91,3.9c-.41.32-.5.9-.21,1.33.82,1.24,1.76,2.4,2.81,3.45,1.05,1.05,2.21,1.99,3.45,2.81.17.11.36.17.55.17.3,0,.59-.13.78-.38l3.91-4.91c.12-.15.2-.34.21-.53l.28-3.18c.03-.29-.08-.59-.29-.79Z"/>
  <g>
    <path class="cls-2" d="m25.38,14.6c.75,0,1.5-.29,2.07-.86,1.14-1.14,1.14-3,0-4.14l-.36-.36,3.48-4.62c.66-.92.55-2.16-.24-2.96-.8-.8-2.05-.9-2.98-.23l-4.6,3.47-.36-.36c-1.14-1.14-3-1.14-4.14,0-.73.73-.99,1.75-.78,2.68l-4.28.38c-.66.06-1.27.32-1.76.75l-8.95,7.8c-1.59,1.38-1.94,3.69-.84,5.49,2.16,3.54,5.17,6.55,8.71,8.72.7.43,1.48.63,2.24.63,1.21,0,2.4-.51,3.24-1.48l7.8-8.95c.43-.5.69-1.11.75-1.76l.38-4.28c.2.04.41.07.62.07Zm3.15-11.55c.12-.08.28-.07.39.03.1.1.12.27.05.36l-3.3,4.37-1.49-1.49,4.35-3.28Zm-8.86,2.91c.18-.18.42-.27.65-.27s.47.09.65.27l5.06,5.06c.36.36.36.95,0,1.31-.36.36-.95.36-1.31,0l-5.06-5.06c-.36-.36-.36-.95,0-1.31Zm-8.28,22.69c-3.27-2-6.05-4.78-8.05-8.05-.57-.93-.4-2.12.38-2.86,2.74,4.18,6.35,7.79,10.53,10.53-.75.78-1.93.95-2.86.38Zm10.74-9.4l-6.54,7.5c-4.14-2.66-7.69-6.21-10.35-10.35l7.5-6.54c.17-.15.39-.24.62-.26l5.34-.47,4.16,4.16-.47,5.34c-.02.23-.11.45-.26.62Z"/>
    <path class="cls-2" d="m5.4,6.16c.2.23.48.35.76.35.23,0,.46-.08.65-.24.42-.36.46-.99.1-1.41l-1.62-1.88c-.36-.42-.99-.46-1.41-.1-.42.36-.46.99-.1,1.41l1.62,1.88Z"/>
    <path class="cls-2" d="m10.7,4.35s.05,0,.07,0c.52,0,.96-.4,1-.93l.1-1.35c.04-.55-.37-1.03-.92-1.07-.55-.05-1.03.37-1.07.92l-.1,1.35c-.04.55.37,1.03.92,1.07Z"/>
    <path class="cls-2" d="m1.93,10.67l1.35.1s.05,0,.07,0c.52,0,.96-.4,1-.93.04-.55-.37-1.03-.92-1.07l-1.35-.1c-.56-.05-1.03.37-1.07.92-.04.55.37,1.03.92,1.07Z"/>
    <path class="cls-2" d="m26.6,25.83c-.36-.42-.99-.46-1.41-.1-.42.36-.46.99-.1,1.41l1.62,1.88c.2.23.48.35.76.35.23,0,.46-.08.65-.24.42-.36.46-.99.1-1.41l-1.62-1.88Z"/>
    <path class="cls-2" d="m21.3,27.65c-.55-.05-1.03.37-1.07.92l-.1,1.35c-.04.55.37,1.03.92,1.07.02,0,.05,0,.07,0,.52,0,.96-.4,1-.93l.1-1.35c.04-.55-.37-1.03-.92-1.07Z"/>
    <path class="cls-2" d="m30.07,21.33l-1.35-.1c-.56-.05-1.03.37-1.07.92-.04.55.37,1.03.92,1.07l1.35.1s.05,0,.07,0c.52,0,.96-.4,1-.93.04-.55-.37-1.03-.92-1.07Z"/>
  </g>
</svg>