<?xml version="1.0" encoding="UTF-8"?>
<svg id="OBJECT" xmlns="http://www.w3.org/2000/svg" viewBox="0 0 32 32">
  <defs>
    <style>
      .cls-1 {
        fill: #7738c8;
      }

      .cls-1, .cls-2 {
        stroke-width: 0px;
      }

      .cls-2 {
        fill: #011839;
      }
    </style>
  </defs>
  <path class="cls-1" d="m19.31,17.53l-4.85-4.85c-.39-.39-1.02-.39-1.41,0l-7.73,7.73c-.39.39-.39,1.02,0,1.41l4.85,4.85c.2.2.45.29.71.29s.51-.1.71-.29l7.73-7.73c.39-.39.39-1.02,0-1.41Z"/>
  <g>
    <path class="cls-2" d="m5.46,6.21c.2.23.48.35.76.35.23,0,.46-.08.65-.24.42-.36.46-.99.1-1.41l-1.64-1.9c-.36-.42-1-.46-1.41-.1-.42.36-.46.99-.1,1.41l1.64,1.9Z"/>
    <path class="cls-2" d="m10.83,4.37s.05,0,.07,0c.52,0,.96-.4,1-.93l.1-1.37c.04-.55-.37-1.03-.92-1.07-.54-.04-1.03.37-1.07.92l-.1,1.37c-.04.55.37,1.03.92,1.07Z"/>
    <path class="cls-2" d="m1.93,10.77l1.37.1s.05,0,.07,0c.52,0,.96-.4,1-.93.04-.55-.37-1.03-.92-1.07l-1.37-.1c-.54-.04-1.03.37-1.07.92-.04.55.37,1.03.92,1.07Z"/>
    <path class="cls-2" d="m26.54,25.79c-.36-.42-.99-.46-1.41-.1-.42.36-.46.99-.1,1.41l1.64,1.9c.2.23.48.35.76.35.23,0,.46-.08.65-.24.42-.36.46-.99.1-1.41l-1.64-1.9Z"/>
    <path class="cls-2" d="m21.17,27.63c-.55-.04-1.03.37-1.07.92l-.1,1.37c-.04.55.37,1.03.92,1.07.02,0,.05,0,.07,0,.52,0,.96-.4,1-.93l.1-1.37c.04-.55-.37-1.03-.92-1.07Z"/>
    <path class="cls-2" d="m30.07,21.23l-1.37-.1c-.54-.05-1.03.37-1.07.92s.37,1.03.92,1.07l1.37.1s.05,0,.07,0c.52,0,.96-.4,1-.93.04-.55-.37-1.03-.92-1.07Z"/>
    <path class="cls-2" d="m23.69,13.88l3.8-3.8.33.33c.2.2.45.29.71.29s.51-.1.71-.29c.39-.39.39-1,.01-1.4l1.03-1.03c.96-.96.96-2.53,0-3.49l-2.77-2.77c-.96-.96-2.53-.96-3.49,0l-1.03,1.03c-.39-.37-1.01-.37-1.4.01s-.39,1.02,0,1.41l.33.33-3.8,3.8-2.9-.41c-1.22-.17-2.47.24-3.34,1.11L1.87,19.03c-.56.56-.87,1.3-.87,2.09s.31,1.53.87,2.09l6.92,6.92c.56.56,1.3.87,2.09.87s1.53-.31,2.09-.87l10.02-10.02c.87-.87,1.29-2.12,1.11-3.34l-.41-2.9Zm2.4-10.74l2.77,2.77c.18.18.18.48,0,.66l-1.02,1.02-3.43-3.43,1.02-1.02c.18-.18.48-.18.66,0Zm-3.97,13.92c.09.6-.12,1.21-.55,1.64l-10.02,10.02c-.36.36-.99.36-1.35,0l-6.92-6.92c-.18-.18-.28-.42-.28-.68s.1-.5.28-.68l10.02-10.02c.43-.43,1.04-.63,1.64-.55l3.39.48c.32.05.63-.06.85-.28l4.16-4.16,2.74,2.74-4.16,4.16c-.22.22-.33.54-.28.85l.48,3.39Z"/>
  </g>
</svg>