<?xml version="1.0" encoding="UTF-8"?>
<svg id="OBJECT" xmlns="http://www.w3.org/2000/svg" viewBox="0 0 32 32">
  <defs>
    <style>
      .cls-1 {
        fill: #7738c8;
      }

      .cls-1, .cls-2 {
        stroke-width: 0px;
      }

      .cls-2 {
        fill: #011839;
      }
    </style>
  </defs>
  <g>
    <path class="cls-1" d="m8.36,16.29h-2.86c-.55,0-1,.45-1,1v9c0,.55.45,1,1,1h2.86c.55,0,1-.45,1-1v-9c0-.55-.45-1-1-1Zm-1,9h-.86v-7h.86v7Z"/>
    <path class="cls-1" d="m26.5,16.29c-.55,0-1,.45-1,1v2.56l-.91-2.86c-.15-.47-.62-.76-1.11-.69-.49.08-.85.5-.85.99v9c0,.55.45,1,1,1s1-.45,1-1v-2.56l.91,2.86c.13.42.52.7.95.7.05,0,.1,0,.15-.01.49-.08.85-.5.85-.99v-9c0-.55-.45-1-1-1Z"/>
    <path class="cls-1" d="m14.39,16.29h-2.82c-.55,0-1,.45-1,1v9c0,.55.45,1,1,1s1-.45,1-1v-2.82h1.82c.55,0,1-.45,1-1v-5.18c0-.55-.45-1-1-1Zm-1,5.18h-.82v-3.18h.82v3.18Z"/>
    <path class="cls-1" d="m20.45,18.29c.55,0,1-.45,1-1s-.45-1-1-1h-2.86c-.55,0-1,.45-1,1v9c0,.55.45,1,1,1h2.86c.55,0,1-.45,1-1s-.45-1-1-1h-1.86v-2.5h1.86c.55,0,1-.45,1-1s-.45-1-1-1h-1.86v-2.5h1.86Z"/>
  </g>
  <path class="cls-2" d="m30.61,12.8L19.45,3.97c-.26-1.68-1.7-2.97-3.45-2.97s-3.19,1.29-3.45,2.97L1.39,12.8c-.23.18-.39.45-.39.77v16.43c0,.55.45,1,1,1h28c.55,0,1-.45,1-1V13.57c0-.32-.16-.59-.39-.77Zm-14.61-4.8c1.31,0,2.44-.73,3.04-1.8l8.08,6.37H4.88l8.08-6.37c.6,1.07,1.73,1.8,3.04,1.8Zm0-5c.83,0,1.5.67,1.5,1.5s-.67,1.5-1.5,1.5-1.5-.67-1.5-1.5.67-1.5,1.5-1.5Zm13,26H3v-14.43h26v14.43Z"/>
</svg>