<?xml version="1.0" encoding="UTF-8"?>
<svg id="OBJECT" xmlns="http://www.w3.org/2000/svg" viewBox="0 0 32 32">
  <defs>
    <style>
      .cls-1 {
        fill: #7738c8;
      }

      .cls-1, .cls-2 {
        stroke-width: 0px;
      }

      .cls-2 {
        fill: #011839;
      }
    </style>
  </defs>
  <path class="cls-1" d="m16,17.5c-3.72,0-6.75,3.03-6.75,6.75s3.03,6.75,6.75,6.75,6.75-3.03,6.75-6.75-3.03-6.75-6.75-6.75Zm3.7,5.59l-3.7,3.73c-.19.19-.41.28-.71.3-.26,0-.52-.11-.71-.29l-2.28-2.27c-.39-.39-.39-1.02,0-1.41.39-.39,1.02-.39,1.41,0l1.57,1.56,2.99-3.02c.39-.39,1.02-.4,1.41,0,.39.39.4,1.02,0,1.41Z"/>
  <g>
    <path class="cls-2" d="m30,20.71h-2.5v-.75c0-4.62-3.55-8.43-8.07-8.83v-1.13c0-1.38-1.12-2.5-2.5-2.5h-1.85c-1.38,0-2.5,1.12-2.5,2.5v1.13c-4.52.41-8.07,4.21-8.07,8.83v.75h-2.5c-.55,0-1,.45-1,1s.45,1,1,1h.88l1.18,2.35c.52,1.02,1.54,1.65,2.68,1.65h.93c.55,0,1-.45,1-1s-.45-1-1-1h-.93c-.38,0-.73-.21-.9-.55l-.73-1.45h2.36c.55,0,1-.45,1-1s-.45-1-1-1h-.98v-.75c0-3.79,3.08-6.87,6.87-6.87h5.25c3.79,0,6.87,3.08,6.87,6.87v.75h-1.02c-.55,0-1,.45-1,1s.45,1,1,1h2.4l-.72,1.45c-.17.34-.52.55-.9.55h-.78c-.55,0-1,.45-1,1s.45,1,1,1h.78c1.14,0,2.17-.63,2.68-1.65l1.17-2.35h.88c.55,0,1-.45,1-1s-.45-1-1-1Zm-14.93-11.21h1.85c.28,0,.5.22.5.5v1.09h-2.85v-1.09c0-.28.22-.5.5-.5Z"/>
    <path class="cls-2" d="m5.52,6.27c.2.23.48.35.76.35.23,0,.46-.08.65-.24.42-.36.46-.99.1-1.41l-1.67-1.93c-.36-.42-.99-.46-1.41-.1s-.46.99-.1,1.41l1.67,1.93Z"/>
    <path class="cls-2" d="m10.97,4.39s.05,0,.07,0c.52,0,.96-.4,1-.93l.1-1.39c.04-.55-.37-1.03-.93-1.07-.55-.04-1.03.37-1.07.92l-.1,1.39c-.04.55.37,1.03.93,1.07Z"/>
    <path class="cls-2" d="m1.93,10.89l1.39.1s.05,0,.07,0c.52,0,.96-.4,1-.93.04-.55-.37-1.03-.92-1.07l-1.39-.1c-.55-.05-1.03.37-1.07.92-.04.55.37,1.03.92,1.07Z"/>
    <path class="cls-2" d="m25.72,6.61c.28,0,.56-.12.76-.35l1.67-1.93c.36-.42.31-1.05-.1-1.41-.42-.36-1.05-.32-1.41.1l-1.67,1.93c-.36.42-.31,1.05.1,1.41.19.16.42.24.65.24Z"/>
    <path class="cls-2" d="m20.96,4.39s.05,0,.07,0c.55-.04.97-.52.93-1.07l-.1-1.39c-.04-.55-.52-.96-1.07-.92-.55.04-.97.52-.93,1.07l.1,1.39c.04.53.48.93,1,.93Z"/>
    <path class="cls-2" d="m27.61,10.07c.04.53.48.93,1,.93.02,0,.05,0,.07,0l1.39-.1c.55-.04.96-.52.92-1.07-.04-.55-.52-.97-1.07-.92l-1.39.1c-.55.04-.96.52-.92,1.07Z"/>
  </g>
</svg>