<?xml version="1.0" encoding="UTF-8"?>
<svg id="OBJECT" xmlns="http://www.w3.org/2000/svg" viewBox="0 0 32 32">
  <defs>
    <style>
      .cls-1 {
        fill: #7738c8;
      }

      .cls-1, .cls-2 {
        stroke-width: 0px;
      }

      .cls-2 {
        fill: #011839;
      }
    </style>
  </defs>
  <path class="cls-1" d="m26.5,10.38H5.5c-.55,0-1,.45-1,1v15c0,.55.45,1,1,1h21c.55,0,1-.45,1-1v-15c0-.55-.45-1-1-1Zm-4.9,7.38c-.56-.46-.89-1.13-.89-1.84s.32-1.38.89-1.84l1.18-.97c.43-.35,1.06-.29,1.41.14.35.43.29,1.06-.14,1.41l-1.18.97c-.12.1-.15.22-.15.29s.03.19.15.29c.56.46.89,1.13.89,1.84s-.32,1.38-.89,1.84l-.88.71c-.19.15-.41.23-.63.23-.29,0-.58-.13-.78-.37-.35-.43-.29-1.06.14-1.41l.88-.72c.13-.1.15-.22.15-.29s-.03-.19-.15-.29Zm-6.38,0c-.56-.46-.89-1.13-.89-1.84s.32-1.38.89-1.84l1.18-.97c.43-.35,1.06-.29,1.41.14.35.43.29,1.06-.14,1.41l-1.18.97c-.12.1-.15.22-.15.29s.03.19.15.29c.56.46.89,1.13.89,1.84s-.32,1.38-.89,1.84l-.88.71c-.19.15-.41.23-.63.23-.29,0-.58-.13-.78-.37-.35-.43-.29-1.06.14-1.41l.88-.72c.13-.1.15-.22.15-.29s-.03-.19-.15-.29Zm-6.38,0c-.56-.46-.89-1.13-.89-1.84s.32-1.38.89-1.84l1.18-.97c.43-.35,1.06-.29,1.41.14.35.43.29,1.06-.14,1.41l-1.18.97c-.12.1-.15.22-.15.29s.03.19.15.29c.56.46.89,1.13.89,1.84s-.32,1.38-.89,1.84l-.88.71c-.19.15-.41.23-.63.23-.29,0-.58-.13-.78-.37-.35-.43-.29-1.06.14-1.41l.88-.72c.13-.1.15-.22.15-.29s-.03-.19-.15-.29Zm14.92,7.12h-15.49c-.55,0-1-.45-1-1s.45-1,1-1h15.49c.55,0,1,.45,1,1s-.45,1-1,1Z"/>
  <g>
    <path class="cls-2" d="m28.5,1H3.5c-1.38,0-2.5,1.12-2.5,2.5v25c0,1.38,1.12,2.5,2.5,2.5h25c1.38,0,2.5-1.12,2.5-2.5V3.5c0-1.38-1.12-2.5-2.5-2.5ZM3.5,3h25c.28,0,.5.22.5.5v3.26H3v-3.26c0-.28.22-.5.5-.5Zm25,26H3.5c-.28,0-.5-.22-.5-.5V8.76h26v19.74c0,.28-.22.5-.5.5Z"/>
    <path class="cls-2" d="m25.75,5.96h1c.55,0,1-.45,1-1s-.45-1-1-1h-1c-.55,0-1,.45-1,1s.45,1,1,1Z"/>
    <path class="cls-2" d="m21.75,5.96h1c.55,0,1-.45,1-1s-.45-1-1-1h-1c-.55,0-1,.45-1,1s.45,1,1,1Z"/>
    <path class="cls-2" d="m13.75,5.96h5c.55,0,1-.45,1-1s-.45-1-1-1h-5c-.55,0-1,.45-1,1s.45,1,1,1Z"/>
    <path class="cls-2" d="m9.25,5.96h1c.55,0,1-.45,1-1s-.45-1-1-1h-1c-.55,0-1,.45-1,1s.45,1,1,1Z"/>
    <path class="cls-2" d="m5.25,5.96h1c.55,0,1-.45,1-1s-.45-1-1-1h-1c-.55,0-1,.45-1,1s.45,1,1,1Z"/>
  </g>
</svg>