<?xml version="1.0" encoding="UTF-8"?>
<svg id="OBJECT" xmlns="http://www.w3.org/2000/svg" viewBox="0 0 32 32">
  <defs>
    <style>
      .cls-1 {
        fill: #7738c8;
      }

      .cls-1, .cls-2 {
        stroke-width: 0px;
      }

      .cls-2 {
        fill: #011839;
      }
    </style>
  </defs>
  <path class="cls-1" d="m10.65,28.84l-7.49-7.49c-.14-.14-.25-.29-.36-.44l-1.51,1.51c-.39.39-.39,1.01,0,1.4l6.89,6.89c.19.19.45.29.7.29s.51-.1.7-.29l1.51-1.51c-.15-.12-.31-.23-.44-.36Z"/>
  <g>
    <path class="cls-2" d="m5.4,6.16c.2.23.48.35.76.35.23,0,.46-.08.65-.24.42-.36.46-.99.1-1.41l-1.62-1.88c-.36-.42-1-.46-1.41-.1-.42.36-.46.99-.1,1.41l1.62,1.88Z"/>
    <path class="cls-2" d="m10.7,4.35s.05,0,.07,0c.52,0,.96-.4,1-.93l.1-1.35c.04-.55-.37-1.03-.92-1.07-.57-.04-1.03.37-1.07.92l-.1,1.35c-.04.55.37,1.03.92,1.07Z"/>
    <path class="cls-2" d="m4.35,9.84c.04-.55-.37-1.03-.92-1.07l-1.35-.1c-.55-.04-1.03.37-1.07.93s.37,1.03.92,1.07l1.35.1s.05,0,.07,0c.52,0,.96-.4,1-.93Z"/>
    <path class="cls-2" d="m26.6,25.84c-.36-.42-.99-.46-1.41-.1-.42.36-.46.99-.1,1.41l1.62,1.88c.2.23.48.35.76.35.23,0,.46-.08.65-.24.42-.36.46-.99.1-1.41l-1.62-1.88Z"/>
    <path class="cls-2" d="m21.3,27.65c-.56-.04-1.03.37-1.07.92l-.1,1.35c-.04.55.37,1.03.92,1.07.03,0,.05,0,.07,0,.52,0,.96-.4,1-.93l.1-1.35c.04-.55-.37-1.03-.92-1.07Z"/>
    <path class="cls-2" d="m30.07,21.33l-1.35-.1c-.57-.05-1.03.37-1.07.92-.04.55.37,1.03.92,1.07l1.35.1s.05,0,.07,0c.52,0,.96-.4,1-.93.04-.55-.37-1.03-.92-1.07Z"/>
    <path class="cls-2" d="m25.18,17.28c.26,0,.51-.1.71-.29.39-.39.39-1.02,0-1.41l-1.66-1.66,1.34-1.34.87.87c.2.2.45.29.71.29s.51-.1.71-.29l1.58-1.58c1.26-1.26,1.26-3.31,0-4.57l-.08-.08.87-.87c1.04-1.04,1.04-2.74,0-3.78l-.79-.79c-1.04-1.04-2.74-1.04-3.78,0l-.87.87-.08-.08c-1.26-1.26-3.31-1.26-4.57,0l-1.58,1.58c-.39.39-.39,1.02,0,1.41l.87.87-1.34,1.34-1.66-1.66c-.39-.39-1.02-.39-1.41,0s-.39,1.02,0,1.41l1.2,1.2-4.04,1.28c-2.37.75-4.04,2.76-4.47,5.11-1.05-.38-2.31-.17-3.13.65-.56.56-.86,1.3-.86,2.09s.31,1.53.86,2.09l7.49,7.49c.56.56,1.3.86,2.09.86s1.53-.31,2.09-.86.86-1.3.86-2.09c0-.36-.07-.71-.2-1.04,2.32-.43,4.31-2.1,5.06-4.45l1.31-4.07,1.21,1.21c.2.2.45.29.71.29Zm1.89-14.08c.26-.26.69-.26.95,0l.79.79c.26.26.26.69,0,.95l-.87.87-1.74-1.74.87-.87Zm-5.52.79c.48-.48,1.26-.48,1.74,0l4.73,4.73c.48.48.48,1.26,0,1.74l-.87.87-6.46-6.47.87-.87Zm-.71,3.86l3.31,3.31-1.34,1.34-3.31-3.31,1.34-1.34Zm-6.03,18.17c-.37.37-.97.37-1.34,0l-7.49-7.49c-.37-.37-.37-.97,0-1.34.19-.19.43-.28.67-.28s.49.09.67.28l7.49,7.49c.37.37.37.97,0,1.34Zm5.24-6.77c-.64,1.99-2.56,3.27-4.69,3.14l-5.77-5.77c-.16-2.1,1.14-4.07,3.17-4.71l5.04-1.59,3.87,3.87-1.62,5.06Z"/>
    <path class="cls-2" d="m15.67,18.45c-.39-.39-1.02-.39-1.41,0s-.39,1.02,0,1.41l.71.71c.2.2.45.29.71.29s.51-.1.71-.29c.39-.39.39-1.02,0-1.41l-.71-.71Z"/>
  </g>
</svg>