<?xml version="1.0" encoding="UTF-8"?>
<svg id="OBJECT" xmlns="http://www.w3.org/2000/svg" viewBox="0 0 32 32">
  <defs>
    <style>
      .cls-1 {
        fill: #7738c8;
      }

      .cls-1, .cls-2 {
        stroke-width: 0px;
      }

      .cls-2 {
        fill: #011839;
      }
    </style>
  </defs>
  <path class="cls-1" d="m30.8,19.69C27.12,11.27,20.1,4.51,11.54,1.16c-.69-.27-1.44-.2-2.07.17-.62.37-1.03,1-1.12,1.71-.13,1.05.48,2.05,1.49,2.43,7.53,2.81,13.6,8.69,16.68,16.11.36.88,1.21,1.43,2.12,1.43.11,0,.22,0,.33-.02.73-.11,1.36-.54,1.72-1.19.36-.66.4-1.43.1-2.12Z"/>
  <g>
    <path class="cls-2" d="m24.22,21.3l-4.39,1.64c-1.05-1.46-2.72-2.34-4.57-2.34-3.11,0-5.64,2.53-5.64,5.63,0,.18.02.35.03.52l-5.89,2.21c-.3.11-.51-.05-.59-.12s-.24-.28-.14-.58l2.77-8.33c.25.04.49.07.74.07,2.74,0,4.97-2.23,4.97-4.97,0-1.84-1.05-3.51-2.63-4.37l1.03-3.09c.17-.52-.11-1.09-.63-1.26-.52-.17-1.09.11-1.26.63L1.13,27.63c-.31.94-.06,1.96.66,2.65.49.47,1.12.72,1.77.72.3,0,.61-.05.91-.17l20.46-7.66c.52-.19.78-.77.59-1.29-.19-.52-.77-.78-1.29-.59Zm-15.99-8.69c.78.55,1.28,1.45,1.28,2.43,0,1.64-1.33,2.97-2.97,2.97-.03,0-.07,0-.1,0l1.79-5.39Zm3.41,13.4c.12-1.89,1.69-3.4,3.62-3.4,1,0,1.91.4,2.58,1.08l-6.2,2.32Z"/>
    <path class="cls-2" d="m17.78,19.34c.17.37.53.59.91.59.13,0,.27-.03.4-.09.5-.22.73-.81.51-1.32l-.42-.94c-.22-.5-.81-.74-1.32-.51-.5.22-.73.81-.51,1.32l.42.94Z"/>
    <path class="cls-2" d="m12.91,19.51c.12,0,.24-.02.36-.07l.93-.36c.51-.2.77-.78.57-1.29-.2-.51-.78-.77-1.29-.57l-.93.36c-.51.2-.77.78-.57,1.29.15.4.53.64.93.64Z"/>
    <path class="cls-2" d="m12.87,13.62l.86.5c.16.09.33.14.5.14.34,0,.68-.18.86-.5.28-.48.12-1.09-.36-1.37l-.86-.5c-.48-.28-1.09-.12-1.37.36-.28.48-.12,1.09.36,1.37Z"/>
    <path class="cls-2" d="m6.69,23.53c-.54-.12-1.08.21-1.2.74-.13.54.21,1.08.74,1.2l1,.24c.08.02.16.03.23.03.45,0,.86-.31.97-.77.13-.54-.21-1.08-.74-1.2l-1-.24Z"/>
    <path class="cls-2" d="m28.8,3.49c-.38-.4-1.01-.41-1.41-.03l-1.76,1.69c-.4.38-.41,1.02-.03,1.41.2.2.46.31.72.31.25,0,.5-.09.69-.28l1.76-1.69c.4-.38.41-1.02.03-1.41Z"/>
    <path class="cls-2" d="m21.98,4.33h.02c.54,0,.99-.43,1-.98l.03-1.33c.01-.55-.43-1.01-.98-1.02h-.02c-.54,0-.99.43-1,.98l-.03,1.33c-.01.55.43,1.01.98,1.02Z"/>
    <path class="cls-2" d="m30.02,9.32l-1.33-.03h-.02c-.54,0-.99.43-1,.98-.01.55.43,1.01.98,1.02l1.33.03h.02c.54,0,.99-.43,1-.98.01-.55-.43-1.01-.98-1.02Z"/>
  </g>
</svg>