<?xml version="1.0" encoding="UTF-8"?>
<svg id="OBJECT" xmlns="http://www.w3.org/2000/svg" viewBox="0 0 32 32">
  <defs>
    <style>
      .cls-1 {
        fill: #7738c8;
      }

      .cls-1, .cls-2 {
        stroke-width: 0px;
      }

      .cls-2 {
        fill: #011839;
      }
    </style>
  </defs>
  <g>
    <path class="cls-1" d="m16,1c-4.14,0-7.5,3.36-7.5,7.5s3.36,7.5,7.5,7.5,7.5-3.36,7.5-7.5-3.36-7.5-7.5-7.5Zm2.5,12.33h-5c-.55,0-1-.45-1-1s.45-1,1-1h5c.55,0,1,.45,1,1s-.45,1-1,1Zm2.33-3.17h-9.66c-.55,0-1-.45-1-1s.45-1,1-1h.34c.27-1.88,1.67-3.39,3.49-3.8v-.1c0-.55.45-1,1-1s1,.45,1,1v.1c1.83.41,3.23,1.92,3.49,3.8h.34c.55,0,1,.45,1,1s-.45,1-1,1Z"/>
    <path class="cls-1" d="m16,6.24c-1.19,0-2.19.82-2.48,1.92h4.95c-.28-1.1-1.29-1.92-2.48-1.92Z"/>
  </g>
  <path class="cls-2" d="m30,15.96h-.72l-1.81-7.24c-.11-.45-.51-.76-.97-.76h-.57c-.55,0-1,.45-1,1,0,.48.33.88.78.98l1.51,6.02h-7.28c-.55,0-1,.45-1,1s.45,1,1,1h1.06v1c0,1.1-.9,2-2,2-.53,0-1.03-.21-1.41-.59s-.59-.88-.59-1.41v-.46c0-.55-.45-1-1-1s-1,.45-1,1v.46c0,1.1-.9,2-2,2-.53,0-1.03-.21-1.41-.59s-.59-.88-.59-1.41v-1h1.06c.55,0,1-.45,1-1s-.45-1-1-1h-7.28l1.51-6.02c.45-.1.78-.5.78-.98,0-.55-.45-1-1-1h-.57c-.46,0-.86.31-.97.76l-1.81,7.24h-.72c-.55,0-1,.45-1,1s.45,1,1,1h1v1c0,1.47.81,2.75,2,3.44v6.59h-2c-.55,0-1,.45-1,1s.45,1,1,1h26c.55,0,1-.45,1-1s-.45-1-1-1h-2v-6.59c1.19-.69,2-1.97,2-3.44v-1h1c.55,0,1-.45,1-1s-.45-1-1-1Zm-25,3v-1h4v1h0c0,1.1-.9,2-2,2s-2-.9-2-2Zm14.47,10.04h-2.47v-2.97h2.47v2.97Zm-4.47,0h-2.47v-2.97h2.47v2.97Zm10,0h-3.53v-3.97c0-.55-.45-1-1-1h-8.94c-.55,0-1,.45-1,1v3.97h-3.53v-6.04c1.2,0,2.27-.54,3-1.38.06.07.11.14.17.21.76.76,1.76,1.17,2.83,1.17,1.2,0,2.27-.54,3-1.38.06.07.11.14.17.21.76.76,1.76,1.17,2.83,1.17,1.2,0,2.27-.54,3-1.38.73.84,1.8,1.38,3,1.38v6.04Zm0-8.04c-1.1,0-2-.9-2-2h0v-1h4v1c0,1.1-.9,2-2,2Z"/>
</svg>