<?xml version="1.0" encoding="UTF-8"?>
<svg id="OBJECT" xmlns="http://www.w3.org/2000/svg" viewBox="0 0 32 32">
  <defs>
    <style>
      .cls-1 {
        fill: #7738c8;
      }

      .cls-1, .cls-2 {
        stroke-width: 0px;
      }

      .cls-2 {
        fill: #011839;
      }
    </style>
  </defs>
  <path class="cls-1" d="m26.17,17.15s-.2-.01-.41-.04c-.55-.06-1.38-.16-1.94.25-.45.33-1.07.23-1.4-.21-.33-.44-.23-1.07.21-1.4,1.19-.88,2.65-.71,3.35-.63.1.01.19.02.25.03.06,0,.4.03.86.16-.58-2.45-2.73-4.23-5.31-4.23-.87,0-1.71.21-2.48.6-1.03-1.07-2.45-1.68-3.96-1.68-1.25,0-2.46.45-3.43,1.24.36.2.6.39.71.47.34.24,2.08,1.6,2.08,3.7,0,.55-.45,1-1,1s-1-.45-1-1c0-1.21-1.24-2.07-1.26-2.08-.03-.02-.07-.05-.1-.08-.07-.06-1.16-.94-3.04-.86-1.54.07-2.92,1.03-3.39,2.5-.08.24-.14.48-.18.73-1.11.83-1.84,2.04-2.09,3.38h25.89c-.77-1.67-2.32-1.84-2.39-1.85Zm-17.46.85h-1c-.55,0-1-.45-1-1s.45-1,1-1h1c.55,0,1,.45,1,1s-.45,1-1,1Z"/>
  <g>
    <path class="cls-2" d="m7.87,7.25c-.43.35-.49.98-.14,1.41.2.24.49.37.78.37.22,0,.45-.07.63-.23l.89-.72c.57-.46.89-1.14.89-1.86s-.33-1.39-.89-1.86c-.13-.11-.16-.23-.16-.31s.03-.2.16-.31l1.2-.98c.43-.35.49-.98.14-1.41-.35-.43-.98-.49-1.41-.14l-1.2.98c-.57.46-.89,1.14-.89,1.86,0,.72.33,1.39.89,1.86.13.11.16.23.16.31s-.03.2-.16.31l-.89.72Z"/>
    <path class="cls-2" d="m14.33,7.25c-.43.35-.49.98-.14,1.41.2.24.49.37.78.37.22,0,.45-.07.63-.23l.89-.72c.57-.46.89-1.14.89-1.86s-.33-1.39-.89-1.86c-.13-.11-.16-.23-.16-.31s.03-.2.16-.31l1.2-.98c.43-.35.49-.98.14-1.41-.35-.43-.98-.49-1.41-.14l-1.2.98c-.57.46-.89,1.14-.89,1.86,0,.72.33,1.39.89,1.86.13.11.16.23.16.31s-.03.2-.16.31l-.89.72Z"/>
    <path class="cls-2" d="m20.78,7.25c-.43.35-.49.98-.14,1.41.2.24.48.37.77.37.22,0,.45-.07.63-.23l.89-.72c.57-.46.89-1.14.89-1.86,0-.72-.33-1.39-.89-1.86-.13-.11-.16-.23-.16-.31s.03-.2.16-.31l1.2-.98c.43-.35.49-.98.14-1.41-.35-.43-.98-.49-1.41-.14l-1.2.98c-.57.46-.89,1.14-.89,1.86s.33,1.39.89,1.86c.13.11.16.23.16.31s-.03.2-.16.31l-.89.72Z"/>
    <path class="cls-2" d="m30,21H2c-.55,0-1,.45-1,1v2c0,1.65,1.35,3,3,3h1.22l.43,1.73c.33,1.34,1.53,2.27,2.91,2.27h14.88c1.38,0,2.58-.93,2.91-2.27l.43-1.73h1.22c1.65,0,3-1.35,3-3v-2c0-.55-.45-1-1-1Zm-5.59,7.24c-.11.45-.51.76-.97.76h-14.88c-.46,0-.86-.31-.97-.76l-.31-1.24h17.44l-.31,1.24Zm4.59-4.24c0,.55-.45,1-1,1H4c-.55,0-1-.45-1-1v-1h26v1Z"/>
  </g>
</svg>