<?xml version="1.0" encoding="UTF-8"?>
<svg id="OBJECT" xmlns="http://www.w3.org/2000/svg" viewBox="0 0 32 32">
  <defs>
    <style>
      .cls-1 {
        fill: #7738c8;
      }

      .cls-1, .cls-2 {
        stroke-width: 0px;
      }

      .cls-2 {
        fill: #011839;
      }
    </style>
  </defs>
  <path class="cls-1" d="m30,27H2c-.55,0-1,.45-1,1s.45,1,1,1h1.55l.74,1.11c.37.56,1,.89,1.66.89h20.1c.67,0,1.29-.33,1.66-.89l.74-1.11h1.55c.55,0,1-.45,1-1s-.45-1-1-1Z"/>
  <g>
    <path class="cls-2" d="m10.6,16.8c-2.22,1-2.73,1.93-3.04,2.77-.36.92-.26,2.07.28,3.33.16.38.53.61.92.61.13,0,.27-.03.39-.08.51-.22.74-.81.52-1.31-.32-.75-.41-1.41-.23-1.87.14-.37.33-.87,1.97-1.6.5-.23.73-.82.5-1.32s-.82-.73-1.32-.5Z"/>
    <path class="cls-2" d="m8.21,5.4c.16.38.53.6.92.6.13,0,.27-.03.4-.08.51-.22.74-.81.52-1.32l-1.31-3c-.22-.51-.81-.74-1.32-.52-.51.22-.74.81-.52,1.32l1.31,3Z"/>
    <path class="cls-2" d="m15.43,5.01c.12.05.24.07.36.07.4,0,.78-.24.93-.64l.65-1.67c.2-.51-.05-1.09-.57-1.3-.51-.2-1.09.05-1.3.57l-.65,1.67c-.2.51.05,1.09.57,1.3Z"/>
    <path class="cls-2" d="m4.85,9.64c.2-.51-.05-1.09-.57-1.3l-1.67-.65c-.51-.2-1.09.05-1.3.57-.2.51.05,1.09.57,1.3l1.67.65c.12.05.24.07.36.07.4,0,.78-.24.93-.64Z"/>
    <path class="cls-2" d="m29.41,5.53h0c-.56-.41-1.25-.62-1.92-.6-.2-.65-.61-1.22-1.17-1.63-1.44-1.03-3.45-.71-4.48.72-.84,1.17-.79,2.71.04,3.81-.18.27-.44.66-.83,1.23l-4.6,2.23c-.22.11-.42.24-.62.36-6.01,1.11-9.8,3.22-11.25,6.28-1.42,3-.19,6.02.67,7.56.18.33.52.51.87.51.17,0,.33-.04.49-.13.48-.27.65-.88.39-1.36-.67-1.2-1.64-3.54-.61-5.73.95-2.01,3.3-3.55,7.12-4.57-.59,1.33-.67,2.83-.24,4.22.78,2.52,3.14,4.25,5.77,4.25.04,0,.08,0,.11,0,1.46-.03,2.86-.58,3.94-1.56.49-.45.9-.99,1.21-1.62.81.37,1.84,1.03,2.21,1.98.33.83.14,1.83-.57,2.99-.29.47-.14,1.09.34,1.37.16.1.34.15.52.15.34,0,.67-.17.86-.48,1.05-1.73,1.29-3.33.71-4.77-.69-1.74-2.41-2.71-3.47-3.16,0-.06.03-.12.04-.18l.65-5.04c.42-.56.72-.94.92-1.2,1.3.43,2.79,0,3.63-1.16,1.04-1.44.71-3.45-.72-4.48Zm-10.3,15.16c-1.82.06-3.41-1.13-3.94-2.84-.29-.93-.23-1.94.16-2.83.35-.79,1.05-1.48,1.98-1.93l4.3-2.08,1.94,1.43-.61,4.72c-.13,1.02-.56,1.91-1.2,2.49-.72.66-1.66,1.03-2.64,1.05Zm9.4-11.85c-.39.54-1.15.66-1.68.28-.8-.59-1.32.08-1.93.86-.14.18-.3.39-.47.61l-1.34-.98c1.36-2,1.37-2.2.64-2.72-.54-.39-.66-1.15-.27-1.69.24-.33.61-.5.98-.5.25,0,.49.07.71.23.35.25.53.66.49,1.1-.03.35.12.7.41.91.29.21.67.25.99.1.4-.18.85-.14,1.2.12.54.39.66,1.15.27,1.69Z"/>
  </g>
</svg>