<?xml version="1.0" encoding="UTF-8"?>
<svg id="OBJECT" xmlns="http://www.w3.org/2000/svg" viewBox="0 0 32 32">
  <defs>
    <style>
      .cls-1 {
        fill: #7738c8;
      }

      .cls-1, .cls-2 {
        stroke-width: 0px;
      }

      .cls-2 {
        fill: #011839;
      }
    </style>
  </defs>
  <path class="cls-1" d="m2.72,13.28c.16.16.25.38.25.62s-.09.45-.25.62l-.42.42c-1.01,1.01-1.1,2.58-.29,3.7L16.87,3.77l-1.95-1.95c-1.08-1.08-2.98-1.08-4.06,0l-.87.87c-.54.54-.84,1.26-.84,2.03s.3,1.49.84,2.03c.34.34.34.89,0,1.23l-.49.49c-.33.33-.9.33-1.23,0l-1.17-1.17c-1.22-1.22-3.2-1.22-4.42,0l-.76.76c-.59.59-.92,1.38-.92,2.21s.33,1.62.92,2.21l.8.8Z"/>
  <g>
    <path class="cls-2" d="m30.19,1.79c-1.05-1.02-2.87-1.01-3.89.01l-2.76,2.76c-.37-.19-.77-.3-1.16-.3-.67,0-1.29.27-1.75.74l-15.61,15.61c-.48.47-.74,1.09-.74,1.76,0,.41.11.81.3,1.17l-2.77,2.76c-1.06,1.07-1.06,2.82.02,3.91.53.51,1.22.79,1.95.79s1.44-.29,1.95-.8l2.75-2.76c.35.19.74.3,1.15.3h.01c.67,0,1.29-.27,1.75-.74l.36-.36,3.4,3.4c.54.54,1.26.84,2.03.84s1.49-.3,2.03-.84l.87-.87c1.12-1.12,1.12-2.94,0-4.06-.16-.16-.25-.38-.25-.61s.09-.45.25-.62l.49-.49c.34-.34.89-.34,1.23,0l1.17,1.17c1.18,1.18,3.24,1.18,4.42,0l.76-.76c1.22-1.22,1.22-3.2,0-4.42l-.8-.8c-.34-.34-.34-.89,0-1.23l.43-.42c1.12-1.12,1.12-2.94,0-4.06l-1.12-1.12.35-.35c.48-.47.74-1.09.74-1.76,0-.41-.11-.81-.3-1.17l2.77-2.76c1.06-1.07,1.06-2.82-.02-3.91ZM4.3,28.78c-.28.28-.8.27-1.07,0-.29-.3-.29-.79,0-1.08l2.67-2.66,1.07,1.07-2.66,2.67Zm5.32-3.05h0c-.13,0-.26-.05-.36-.15l-2.84-2.84c-.1-.1-.15-.22-.15-.36,0-.08.02-.22.15-.35l15.63-15.63c.12-.12.27-.14.34-.14.1.04.26.05.36.15l2.84,2.84c.1.1.15.22.15.36,0,.08-.02.22-.15.35l-15.63,15.63c-.12.12-.27.14-.34.14Zm16.73-11.46c.34.34.34.89,0,1.23l-.43.42c-1.12,1.12-1.12,2.94,0,4.06l.8.8c.44.44.44,1.16,0,1.59l-.76.76c-.43.43-1.17.43-1.59,0l-1.17-1.17c-1.12-1.12-2.94-1.12-4.06,0l-.49.49c-.54.54-.84,1.26-.84,2.03s.3,1.49.84,2.03c.34.34.34.89,0,1.23l-.87.87c-.33.33-.9.33-1.23,0l-3.4-3.4,12.07-12.07,1.12,1.12Zm2.44-9.98l-2.67,2.66-1.07-1.07,2.66-2.67c.28-.28.8-.27,1.07,0,.29.3.29.79,0,1.08Z"/>
    <path class="cls-2" d="m18.88,11.71l-9.96,9.96c-.39.39-.39,1.02,0,1.41.2.2.45.29.71.29s.51-.1.71-.29l9.96-9.96c.39-.39.39-1.02,0-1.41s-1.02-.39-1.41,0Z"/>
    <path class="cls-2" d="m21.68,8.91l-.71.71c-.39.39-.39,1.02,0,1.41.2.2.45.29.71.29s.51-.1.71-.29l.71-.71c.39-.39.39-1.02,0-1.41s-1.02-.39-1.41,0Z"/>
  </g>
</svg>