<?xml version="1.0" encoding="UTF-8"?>
<svg id="OBJECT" xmlns="http://www.w3.org/2000/svg" viewBox="0 0 32 32">
  <defs>
    <style>
      .cls-1 {
        fill: #7738c8;
      }

      .cls-1, .cls-2 {
        stroke-width: 0px;
      }

      .cls-2 {
        fill: #011839;
      }
    </style>
  </defs>
  <g>
    <path class="cls-1" d="m28.92,4.49l-3.86,3.86c.66.95,1.03,2.06,1.03,3.24,0,.49-.08.96-.2,1.42,1.23.45,2.52.69,3.78.66.03,0,.51.01,1.21-.03.39-3.44-.09-6.76-1.95-9.16Z"/>
    <path class="cls-1" d="m18.26,1.14c0,.44.03.81.06,1.06,0,.05,0,.09,0,.14-.04,1.26.21,2.55.65,3.78.46-.12.94-.2,1.43-.2,1.18,0,2.3.36,3.24,1.03l3.86-3.86c-2.41-1.88-5.77-2.35-9.25-1.94Z"/>
  </g>
  <g>
    <path class="cls-2" d="m29.7,14.98c-.54-.12-1.07.22-1.19.76-.33,1.47-.81,2.95-1.39,4.35-3.41-.24-7.15-2.08-10.14-5.07s-4.84-6.73-5.07-10.14c1.4-.58,2.88-1.06,4.35-1.39.54-.12.88-.65.76-1.19-.12-.54-.66-.88-1.19-.76-4.5,1-9,3.24-11.47,5.71C.93,10.67.05,15.93,2.07,20.95c.36.91,1.15,1.57,2.12,1.77,1,.21,2.04-.09,2.76-.81l2.95-2.95c.89-.9,2.31-.99,3.18-.21.46.41.72.97.73,1.59.02.62-.22,1.2-.65,1.63l-3.08,3.08c-.72.73-1.02,1.76-.81,2.76.2.97.87,1.76,1.77,2.12,1.79.72,3.61,1.07,5.36,1.07,3.18,0,6.14-1.15,8.35-3.36,2.47-2.47,4.71-6.97,5.71-11.47.12-.54-.22-1.07-.76-1.19Zm-24.16,5.52c-.25.24-.6.35-.94.28-.18-.04-.52-.16-.67-.56-1.47-3.68-1.14-7.46.79-10.26.15,2.73,1.2,5.66,3.01,8.36l-2.18,2.18Zm3.68-3.54c-2-3.09-2.87-6.43-2.39-9.22.89-.7,1.96-1.36,3.14-1.96.47,3.67,2.49,7.55,5.6,10.66,3.1,3.1,6.99,5.12,10.66,5.6-.6,1.18-1.27,2.25-1.96,3.14-2.78.48-6.12-.39-9.2-2.38.51-.73.78-1.61.76-2.51-.03-1.17-.53-2.24-1.4-3.02-1.45-1.3-3.58-1.38-5.2-.31Zm2.56,11.12c-.39-.16-.51-.49-.55-.67-.07-.34.03-.7.27-.94l2.18-2.18c2.71,1.82,5.65,2.85,8.39,3-2.8,1.94-6.6,2.27-10.28.79Z"/>
    <path class="cls-2" d="m17.81,14.19c.72.72,1.66,1.08,2.6,1.08s1.89-.36,2.6-1.08c1.44-1.44,1.44-3.77,0-5.21-1.44-1.44-3.77-1.44-5.21,0-1.44,1.44-1.44,3.77,0,5.21Zm1.41-3.8c.33-.33.76-.49,1.19-.49s.86.16,1.19.49c.66.66.66,1.72,0,2.38s-1.73.66-2.38,0c-.66-.66-.66-1.72,0-2.38Z"/>
  </g>
</svg>