<?xml version="1.0" encoding="UTF-8"?>
<svg id="OBJECT" xmlns="http://www.w3.org/2000/svg" viewBox="0 0 32 32">
  <defs>
    <style>
      .cls-1 {
        fill: #7738c8;
      }

      .cls-1, .cls-2 {
        stroke-width: 0px;
      }

      .cls-2 {
        fill: #011839;
      }
    </style>
  </defs>
  <path class="cls-1" d="m2.23,13.4L13.4,2.23l-1.33-.89c-.79-.53-1.85-.43-2.53.25L1.59,9.54c-.67.67-.78,1.73-.25,2.53l.89,1.33Z"/>
  <g>
    <path class="cls-2" d="m25.84,6.51c.28,0,.56-.12.76-.35l1.62-1.88c.36-.42.31-1.05-.1-1.41-.42-.36-1.05-.32-1.41.1l-1.62,1.88c-.36.42-.31,1.05.1,1.41.19.16.42.24.65.24Z"/>
    <path class="cls-2" d="m21.22,4.35s.05,0,.07,0c.55-.04.96-.52.92-1.07l-.1-1.35c-.04-.55-.5-.96-1.07-.92-.55.04-.96.52-.92,1.07l.1,1.35c.04.53.48.93,1,.93Z"/>
    <path class="cls-2" d="m27.65,9.84c.04.53.48.93,1,.93.02,0,.05,0,.07,0l1.35-.1c.55-.04.96-.52.92-1.07s-.52-.96-1.07-.93l-1.35.1c-.55.04-.96.52-.92,1.07Z"/>
    <path class="cls-2" d="m5.4,25.84l-1.62,1.88c-.36.42-.31,1.05.1,1.41.19.16.42.24.65.24.28,0,.56-.12.76-.35l1.62-1.88c.36-.42.31-1.05-.1-1.41-.42-.36-1.05-.32-1.41.1Z"/>
    <path class="cls-2" d="m10.7,27.65c-.55.04-.96.52-.92,1.07l.1,1.35c.04.53.48.93,1,.93.02,0,.05,0,.07,0,.55-.04.96-.52.92-1.07l-.1-1.35c-.04-.55-.5-.96-1.07-.92Z"/>
    <path class="cls-2" d="m4.35,22.16c-.04-.55-.53-.96-1.07-.93l-1.35.1c-.55.04-.96.52-.92,1.07.04.53.48.93,1,.93.02,0,.05,0,.07,0l1.35-.1c.55-.04.96-.52.92-1.07Z"/>
    <path class="cls-2" d="m18.1,7.29c-.85-.69-2.03-.71-2.89-.1l-1.87-1.87c-.39-.39-1.02-.39-1.41,0s-.39,1.02,0,1.41l1.84,1.84-5.19,5.19-1.84-1.84c-.39-.39-1.02-.39-1.41,0s-.39,1.02,0,1.41l1.87,1.87c-.61.87-.59,2.04.1,2.89l9.78,12.02c.43.53,1.06.85,1.74.88.04,0,.08,0,.12,0,.63,0,1.25-.25,1.7-.7l9.67-9.66c.48-.48.73-1.14.7-1.82-.04-.68-.36-1.31-.88-1.74l-12.02-9.78Zm-4.56,4.34l12.04,10.89-3.06,3.06-10.89-12.04,1.91-1.91Zm5.68,17.25c-.11.11-.25.12-.3.12-.07,0-.19-.03-.29-.15l-9.78-12.02c-.13-.16-.12-.39.03-.54l1.34-1.34,10.89,12.04-1.89,1.89Zm9.67-9.66l-1.89,1.89-12.04-10.89,1.34-1.34c.08-.08.18-.12.28-.12.09,0,.18.03.25.09l12.01,9.78c.12.1.14.22.15.29,0,.07,0,.19-.12.3Z"/>
  </g>
</svg>