<?xml version="1.0" encoding="UTF-8"?>
<svg id="OBJECT" xmlns="http://www.w3.org/2000/svg" viewBox="0 0 32 32">
  <defs>
    <style>
      .cls-1 {
        fill: #7738c8;
      }

      .cls-1, .cls-2 {
        stroke-width: 0px;
      }

      .cls-2 {
        fill: #011839;
      }
    </style>
  </defs>
  <g>
    <path class="cls-1" d="m1,23v1c0,1.1.9,2,2,2h26c1.1,0,2-.9,2-2v-1H1Z"/>
    <path class="cls-1" d="m5.65,28.73c.33,1.34,1.53,2.27,2.91,2.27h14.88c1.38,0,2.58-.93,2.91-2.27l.18-.73H5.47l.18.73Z"/>
  </g>
  <g>
    <path class="cls-2" d="m8.15,7.23c-.43.35-.49.98-.14,1.41.2.24.49.37.78.37.22,0,.45-.07.63-.23l.88-.72c.57-.46.89-1.14.89-1.85,0-.71-.33-1.39-.89-1.85-.13-.11-.16-.22-.16-.3s.03-.2.16-.3l1.19-.97c.43-.35.49-.98.14-1.41-.35-.43-.98-.49-1.41-.14l-1.19.97c-.57.46-.89,1.14-.89,1.85,0,.71.32,1.39.89,1.85.13.1.16.22.16.3,0,.08-.03.2-.16.3l-.88.72Z"/>
    <path class="cls-2" d="m14.58,7.23c-.43.35-.49.98-.14,1.41.2.24.49.37.78.37.22,0,.45-.07.63-.23l.88-.72c.57-.46.89-1.14.89-1.85,0-.71-.33-1.39-.89-1.85-.13-.11-.16-.22-.16-.3,0-.08.03-.2.16-.3l1.19-.97c.43-.35.49-.98.14-1.41-.35-.43-.98-.49-1.41-.14l-1.19.97c-.57.46-.89,1.14-.89,1.85,0,.71.32,1.39.89,1.85.13.1.16.22.16.3,0,.08-.03.2-.16.3l-.88.72Z"/>
    <path class="cls-2" d="m21,7.23c-.43.35-.49.98-.14,1.41.2.24.49.37.78.37.22,0,.45-.07.63-.23l.88-.72c.57-.46.89-1.14.89-1.85,0-.71-.33-1.39-.89-1.85-.13-.11-.16-.22-.16-.3,0-.08.03-.2.16-.3l1.19-.97c.43-.35.49-.98.14-1.41-.35-.43-.98-.49-1.41-.14l-1.19.97c-.57.46-.89,1.14-.89,1.85,0,.71.32,1.39.89,1.85.13.11.16.22.16.3s-.03.2-.16.3l-.88.72Z"/>
    <path class="cls-2" d="m23.37,13.94c-1.51-2.1-3.9-3.36-6.49-3.36-1.68,0-3.32.54-4.67,1.51-.36-.05-.72-.08-1.08-.08-4.41,0-7.99,3.59-7.99,8,0,.45.03.82.1,1.17.09.48.51.82.98.82.06,0,.12,0,.19-.02.54-.1.9-.62.8-1.17-.04-.23-.06-.49-.06-.81,0-3.31,2.69-6,5.99-6,1.6,0,3.13.66,4.24,1.78-.37.35-.7.75-1,1.17-.8-.9-1.94-1.44-3.24-1.44-2.48,0-4.49,2.02-4.49,4.5,0,.45.07.89.2,1.3.14.42.53.69.95.69.1,0,.21-.02.31-.05.53-.17.81-.73.64-1.26-.07-.21-.1-.44-.1-.68,0-1.38,1.12-2.5,2.49-2.5.97,0,1.83.56,2.23,1.41-.22.64-.37,1.31-.42,2-.04.55.38,1.03.93,1.07.55.04,1.03-.37,1.07-.92.22-3.1,2.85-5.53,5.97-5.53s5.74,2.43,5.96,5.53c.04.53.48.93,1,.93.02,0,.05,0,.07,0,.55-.04.97-.52.93-1.07-.24-3.29-2.49-6.01-5.5-6.99Zm-6.49-1.36c1.19,0,2.32.36,3.29,1-1.14.11-2.22.46-3.17,1-.62-.67-1.35-1.22-2.15-1.65.64-.23,1.33-.35,2.04-.35Z"/>
    <path class="cls-2" d="m20.9,17.04c-2.21,0-4.13,1.64-4.45,3.81-.08.55.3,1.06.84,1.14.54.08,1.05-.29,1.14-.84.18-1.2,1.24-2.11,2.47-2.11s2.28.91,2.46,2.11c.07.5.5.85.99.85.05,0,.1,0,.15-.01.55-.08.92-.59.84-1.14-.32-2.17-2.23-3.81-4.44-3.81Z"/>
  </g>
</svg>