<?xml version="1.0" encoding="UTF-8"?>
<svg id="OBJECT" xmlns="http://www.w3.org/2000/svg" viewBox="0 0 32 32">
  <defs>
    <style>
      .cls-1 {
        fill: #7738c8;
      }

      .cls-1, .cls-2 {
        stroke-width: 0px;
      }

      .cls-2 {
        fill: #011839;
      }
    </style>
  </defs>
  <path class="cls-2" d="m9.91,31c-1.59,0-3.13-.42-4.47-1.25C.62,26.76-.44,19.34,3.07,13.2c.68-1.19,1.5-2.28,2.44-3.22.83-.83,1.47-1.66,1.96-2.52,0,0,0-.02,0-.02,1.84-3.23,4.93-5.48,8.47-6.2,3.57-.72,7.15.15,10.08,2.46,4.7,3.71,6.3,10.44,3.81,16.01-1.65,3.7-4.78,6.36-8.58,7.29-2.08.51-4.07,1.32-5.91,2.41-1.77,1.05-3.65,1.58-5.44,1.58ZM18.38,3c-.68,0-1.37.07-2.06.21-3,.6-5.61,2.52-7.18,5.25,0,0,0,0,0,0h0c-.58,1.02-1.32,1.98-2.27,2.94-.81.82-1.53,1.77-2.12,2.81-2.97,5.19-2.21,11.39,1.69,13.81,2.25,1.4,5.23,1.27,7.95-.35,2-1.19,4.16-2.07,6.43-2.62,3.22-.79,5.86-3.04,7.27-6.18,2.11-4.73.76-10.44-3.23-13.58-1.91-1.51-4.16-2.29-6.47-2.29Z"/>
  <g>
    <path class="cls-1" d="m11.44,17.91c-.92,0-1.67.75-1.67,1.67s.75,1.67,1.67,1.67,1.67-.75,1.67-1.67-.75-1.67-1.67-1.67Z"/>
    <path class="cls-1" d="m23.56,6.85c-1.53-1.21-3.33-1.85-5.2-1.85-3.06,0-5.82,1.63-7.38,4.36l-.05.08c-.67,1.17-1.51,2.26-2.58,3.35-.69.7-1.29,1.5-1.81,2.4-2.4,4.21-1.94,9.31,1,11.15.7.44,1.5.66,2.38.66,1.1,0,2.29-.36,3.42-1.03,2.17-1.29,4.51-2.25,6.97-2.85,2.59-.64,4.74-2.48,5.88-5.05,1.72-3.85.59-8.67-2.63-11.22Zm-12.12,16.4c-2.03,0-3.67-1.65-3.67-3.67s1.65-3.67,3.67-3.67,3.67,1.65,3.67,3.67-1.65,3.67-3.67,3.67Zm4.48-13.1l-.84,3.19c-.12.45-.52.75-.97.75-.08,0-.17-.01-.26-.03-.53-.14-.85-.69-.71-1.22l.84-3.19c.14-.53.69-.85,1.22-.71.53.14.85.69.71,1.22Zm1.4,7.14c-.08,0-.17-.01-.26-.03-.53-.14-.85-.69-.71-1.22l1.86-7.04c.14-.53.7-.85,1.22-.71.53.14.85.69.71,1.22l-1.86,7.04c-.12.45-.52.75-.97.75Zm6.14-4.98l-1.69,6.42c-.12.45-.52.75-.97.75-.08,0-.17-.01-.26-.03-.53-.14-.85-.69-.71-1.22l1.69-6.42c.14-.53.7-.85,1.22-.71.53.14.85.69.71,1.22Z"/>
  </g>
</svg>