<?xml version="1.0" encoding="UTF-8"?>
<svg id="OBJECT" xmlns="http://www.w3.org/2000/svg" viewBox="0 0 32 32">
  <defs>
    <style>
      .cls-1 {
        fill: #7738c8;
      }

      .cls-1, .cls-2 {
        stroke-width: 0px;
      }

      .cls-2 {
        fill: #011839;
      }
    </style>
  </defs>
  <path class="cls-1" d="m30,27H2c-.55,0-1,.45-1,1s.45,1,1,1h1.55l.74,1.11c.37.56,1,.89,1.66.89h20.1c.67,0,1.29-.33,1.66-.89l.74-1.11h1.55c.55,0,1-.45,1-1s-.45-1-1-1Z"/>
  <g>
    <path class="cls-2" d="m9.15,6.23c-.43.35-.49.98-.14,1.41.2.24.49.37.78.37.22,0,.45-.07.63-.23l.74-.6c.51-.42.8-1.03.8-1.67,0-.65-.29-1.25-.8-1.67-.05-.04-.07-.08-.07-.12s.02-.08.07-.12l.99-.81c.43-.35.49-.98.14-1.41-.35-.43-.98-.49-1.41-.14l-.99.81c-.51.42-.8,1.03-.8,1.67s.29,1.25.8,1.67c.05.04.07.08.07.12s-.02.08-.07.12l-.74.6Z"/>
    <path class="cls-2" d="m14.5,6.23c-.43.35-.49.98-.14,1.41.2.24.48.37.77.37.22,0,.45-.07.63-.23l.73-.6c.51-.42.8-1.03.8-1.67,0-.65-.29-1.25-.8-1.67-.05-.04-.07-.08-.07-.12s.02-.08.07-.12l.99-.81c.43-.35.49-.98.14-1.41-.35-.43-.98-.49-1.41-.14l-.99.81c-.51.42-.8,1.03-.8,1.67s.29,1.25.8,1.67c.05.04.07.08.07.12s-.02.08-.07.12l-.73.6Z"/>
    <path class="cls-2" d="m19.86,6.23c-.43.35-.49.98-.14,1.41.2.24.48.37.77.37.22,0,.45-.07.63-.23l.73-.6c.51-.42.8-1.03.8-1.67s-.29-1.26-.8-1.67c-.05-.04-.07-.08-.07-.12s.02-.08.07-.12l.99-.81c.43-.35.49-.98.14-1.41-.35-.43-.98-.49-1.41-.14l-.99.81c-.51.42-.8,1.03-.8,1.67s.29,1.25.8,1.67c.05.04.07.08.07.12s-.02.08-.07.12l-.73.6Z"/>
    <path class="cls-2" d="m27.26,11.93h-2.8l-.1-1.03c-.05-.51-.48-.9-1-.9H7.93c-.51,0-.94.39-1,.9l-.93,9.37c-.14,1.33.28,2.68,1.14,3.72l1.4,1.66c.36.42.99.48,1.41.12.42-.36.48-.99.12-1.41l-1.4-1.65c-.52-.62-.77-1.43-.68-2.23l.84-8.47h13.62l.85,8.47c.08.8-.17,1.61-.69,2.23l-1.39,1.66c-.35.42-.3,1.05.12,1.41.19.16.42.23.64.23.29,0,.57-.12.77-.36l1.39-1.66c.7-.83,1.09-1.86,1.15-2.93l1.51-.34c1.83-.42,3.12-2.02,3.12-3.9v-2.22c0-1.47-1.19-2.66-2.66-2.66Zm.66,4.88c0,.94-.64,1.74-1.56,1.95l-1.19.27-.51-5.1h2.6c.36,0,.66.3.66.66v2.22Z"/>
    <path class="cls-2" d="m11.64,19.21l.46-4.61c.05-.55-.35-1.04-.9-1.09-.55-.06-1.04.35-1.09.9l-.46,4.61c-.05.55.35,1.04.9,1.09.03,0,.07,0,.1,0,.51,0,.94-.38.99-.9Z"/>
    <path class="cls-2" d="m12.06,21.29h0c-.34-.43-.98-.52-1.41-.18-.21.17-.34.42-.37.69-.02.22.03.43.14.62.02.04.05.08.08.11,0,0,.01.02.02.02l.5.59c.2.23.48.35.76.35.23,0,.46-.08.65-.24.42-.36.47-.99.12-1.41l-.48-.56Z"/>
  </g>
</svg>