<?xml version="1.0" encoding="UTF-8"?>
<svg id="OBJECT" xmlns="http://www.w3.org/2000/svg" viewBox="0 0 32 32">
  <defs>
    <style>
      .cls-1 {
        fill: #7738c8;
      }

      .cls-1, .cls-2 {
        stroke-width: 0px;
      }

      .cls-2 {
        fill: #011839;
      }
    </style>
  </defs>
  <g>
    <path class="cls-1" d="m26.5,10.76H5.5c-.55,0-1,.45-1,1s.45,1,1,1h1.65l.4.47c.41.83,1.25,1.35,2.18,1.35h12.55c.93,0,1.76-.52,2.18-1.34l.4-.47h1.65c.55,0,1-.45,1-1s-.45-1-1-1Z"/>
    <path class="cls-1" d="m24.61,8.34c0-1.66-1.34-3-3-3h-11.23c-1.66,0-3,1.34-3,3v.42h17.23v-.42Z"/>
    <path class="cls-1" d="m19.21,3c0-1.1-.9-2-2-2h-2.41c-1.1,0-2,.9-2,2v.34h6.41v-.34Z"/>
  </g>
  <path class="cls-2" d="m30.17,16.91c-1.08-1.08-2.81-1.12-3.93-.08l-3.89,3.59-2.11-2.81c-.56-.75-1.46-1.2-2.4-1.2h-5.41c-.85,0-1.66.36-2.23.99l-.91,1.01h-1.29v-1c0-.55-.45-1-1-1H2c-.55,0-1,.45-1,1v12c0,.55.45,1,1,1h5c.55,0,1-.45,1-1v-1h1.41l1.83,1.33c1.15.83,2.5,1.27,3.92,1.27h2.32c1.78,0,3.52-.73,4.76-2l7.95-8.1c1.08-1.11,1.08-2.9-.02-3.99ZM6,28.4h-3v-10h3v10Zm22.76-8.9l-7.95,8.1c-.87.89-2.09,1.4-3.33,1.4h-2.32c-.99,0-1.94-.31-2.74-.89l-2.09-1.52c-.17-.12-.38-.19-.59-.19h-1.74v-6h1.74c.28,0,.55-.12.74-.33l1.21-1.34c.19-.21.46-.33.74-.33h5.41c.31,0,.61.15.8.4l2.24,2.99-.46.44c-.27.26-.63.4-1.02.39-.38-.01-.73-.18-.99-.46l-.71-.79c-.37-.41-1-.44-1.41-.07-.41.37-.44,1-.07,1.41l.71.79c.62.69,1.47,1.09,2.4,1.12.04,0,.08,0,.13,0,.88,0,1.71-.33,2.35-.95l5.78-5.37c.33-.3.84-.29,1.16.02.32.32.33.85,0,1.18Z"/>
</svg>