<?xml version="1.0" encoding="UTF-8"?>
<svg id="OBJECT" xmlns="http://www.w3.org/2000/svg" viewBox="0 0 32 32">
  <defs>
    <style>
      .cls-1 {
        fill: #7738c8;
      }

      .cls-1, .cls-2 {
        stroke-width: 0px;
      }

      .cls-2 {
        fill: #011839;
      }
    </style>
  </defs>
  <path class="cls-1" d="m29.35,8.33c.95-.7,1.55-1.78,1.64-2.96.09-1.18-.34-2.34-1.18-3.17-.84-.84-2-1.27-3.17-1.18-1.18.09-2.26.68-2.96,1.64l-3.72,5.04,4.37,4.37,5.04-3.72Zm-3.77-3.32l.93-.93c.39-.39,1.02-.39,1.41,0,.39.39.39,1.02,0,1.41l-.93.93c-.2.2-.45.29-.71.29s-.51-.1-.71-.29c-.39-.39-.39-1.02,0-1.41Z"/>
  <g>
    <path class="cls-2" d="m5.4,6.16c.2.23.48.35.76.35.23,0,.46-.08.65-.24.42-.36.46-.99.1-1.41l-1.62-1.88c-.36-.42-.99-.46-1.41-.1-.42.36-.46.99-.1,1.41l1.62,1.88Z"/>
    <path class="cls-2" d="m10.7,4.35s.05,0,.07,0c.52,0,.96-.4,1-.93l.1-1.35c.04-.55-.37-1.03-.92-1.07-.57-.04-1.03.37-1.07.92l-.1,1.35c-.04.55.37,1.03.92,1.07Z"/>
    <path class="cls-2" d="m1.93,10.67l1.35.1s.05,0,.07,0c.52,0,.96-.4,1-.93.04-.55-.37-1.03-.92-1.07l-1.35-.1c-.54-.04-1.03.37-1.07.93s.37,1.03.92,1.07Z"/>
    <path class="cls-2" d="m26.6,25.83c-.36-.42-1-.46-1.41-.1-.42.36-.46.99-.1,1.41l1.62,1.88c.2.23.48.35.76.35.23,0,.46-.08.65-.24.42-.36.46-.99.1-1.41l-1.62-1.88Z"/>
    <path class="cls-2" d="m21.3,27.65c-.56-.03-1.03.37-1.07.92l-.1,1.35c-.04.55.37,1.03.92,1.07.03,0,.05,0,.07,0,.52,0,.96-.4,1-.93l.1-1.35c.04-.55-.37-1.03-.92-1.07Z"/>
    <path class="cls-2" d="m30.07,21.33l-1.35-.1c-.55-.03-1.03.37-1.07.93s.37,1.03.92,1.07l1.35.1s.05,0,.07,0c.52,0,.96-.4,1-.93.04-.55-.37-1.03-.92-1.07Z"/>
    <path class="cls-2" d="m24.51,15.07l-7.58-7.58c-1.02-1.02-2.67-1.02-3.69,0l-.76.76c-.49.49-.76,1.15-.76,1.84s.27,1.35.76,1.85l.17.17c-4.57.9-7.6,2.06-9,3.45-1.71,1.71-2.66,3.98-2.66,6.39s.94,4.69,2.65,6.39c0,0,0,0,0,0,0,0,0,0,0,0s0,0,0,0c1.71,1.71,3.98,2.65,6.39,2.65h0c2.41,0,4.69-.94,6.39-2.66,1.4-1.4,2.56-4.43,3.45-9l.17.17c.51.51,1.18.76,1.84.76s1.34-.25,1.84-.76l.76-.76c.49-.49.76-1.15.76-1.84s-.27-1.35-.76-1.85Zm-8,.89l-3.67,6.34c-1.2,2.09-3.27,3.5-5.66,3.87l-1.61.26.25-1.61c.37-2.39,1.79-4.46,3.87-5.66l6.34-3.67.47.47Zm-11.44,1.01c1.21-1.21,4.51-2.32,9.3-3.15l.2.2-5.88,3.4c-2.61,1.51-4.38,4.09-4.85,7.08l-.09.59c-.49-.97-.75-2.04-.75-3.15,0-1.88.73-3.65,2.07-4.98Zm9.95,9.96c-1.33,1.33-3.1,2.07-4.98,2.07-1.11,0-2.18-.26-3.15-.75l.59-.09c2.99-.47,5.57-2.24,7.08-4.85l3.41-5.88.2.2c-.83,4.79-1.94,8.1-3.15,9.3Zm8.07-9.59l-.76.76c-.24.24-.62.24-.86,0l-7.58-7.58c-.12-.11-.18-.27-.18-.43s.06-.31.18-.43l.76-.76c.12-.12.27-.18.43-.18s.31.06.43.18l7.58,7.58c.12.11.18.27.18.43s-.06.31-.18.43Z"/>
  </g>
</svg>